<?xml version="1.0" encoding="utf-8"?>
<!-- Generator: Adobe Illustrator 27.6.1, SVG Export Plug-In . SVG Version: 6.00 Build 0)  -->
<svg version="1.1" id="embs" xmlns="http://www.w3.org/2000/svg" xmlns:xlink="http://www.w3.org/1999/xlink" x="0px" y="0px"
	 viewBox="0 0 190 40" enable-background="new 0 0 190 40" xml:space="preserve">
<path fill-rule="evenodd" clip-rule="evenodd" fill="#20399E" d="M21.33,10.67c0,5.33,0,10.67,0,16V32l5.33-5.33
	c0-7.11,0-14.22,0-21.33L21.33,10.67z"/>
<path fill-rule="evenodd" clip-rule="evenodd" fill="#20399E" d="M29.33,2.67c0,12.44,0,24.89,0,37.33L32,37.33V0L29.33,2.67z"/>
<path fill-rule="evenodd" clip-rule="evenodd" fill="#20399E" d="M34.67,10.67c0,7.11,0,14.22,0,21.33L40,26.67v-5.33l10.67,0L56,16
	c-5.33,0-10.67,0-16,0V5.33L34.67,10.67z"/>
<path fill-rule="evenodd" clip-rule="evenodd" fill="#20399E" d="M16,2.67c0,4.44,0,8.89,0,13.33H5.33L0,21.33h16
	c0,6.22,0,12.44,0,18.67l2.67-2.67V0L16,2.67z"/>
<path fill="#20399E" d="M162.51,25.19c0.93,0.52,1.88,1,2.84,1.42c0.96,0.42,1.95,0.78,2.98,1.07c1.03,0.29,2.11,0.51,3.25,0.66
	c1.13,0.16,2.34,0.23,3.62,0.23c1.54,0,2.86-0.1,3.94-0.3c1.09-0.2,1.97-0.48,2.65-0.84c0.68-0.36,1.18-0.78,1.5-1.27
	c0.31-0.49,0.46-1.03,0.46-1.61c0-0.93-0.39-1.66-1.17-2.21c-0.77-0.54-1.97-0.81-3.59-0.81c-0.71,0-1.46,0.05-2.25,0.14
	c-0.78,0.1-1.58,0.2-2.39,0.3c-0.8,0.11-1.6,0.21-2.38,0.31c-0.78,0.09-1.52,0.14-2.21,0.14c-1.15,0-2.25-0.15-3.31-0.45
	c-1.06-0.29-2-0.73-2.81-1.33c-0.82-0.59-1.46-1.33-1.95-2.21c-0.48-0.89-0.72-1.92-0.72-3.11c0-0.7,0.1-1.4,0.29-2.09
	c0.19-0.69,0.5-1.35,0.92-1.98c0.42-0.63,0.97-1.22,1.64-1.76c0.67-0.54,1.47-1.01,2.42-1.4c0.95-0.39,2.04-0.71,3.29-0.93
	c1.24-0.22,2.66-0.34,4.24-0.34c1.15,0,2.3,0.07,3.46,0.19c1.16,0.12,2.29,0.3,3.39,0.53c1.1,0.23,2.16,0.5,3.18,0.83
	c1.02,0.33,1.97,0.68,2.84,1.08l-2.28,4.2c-0.72-0.32-1.5-0.61-2.33-0.88c-0.84-0.27-1.7-0.5-2.61-0.69
	c-0.91-0.2-1.85-0.35-2.82-0.47c-0.96-0.11-1.96-0.17-2.96-0.17c-1.44,0-2.62,0.11-3.54,0.31c-0.92,0.21-1.66,0.48-2.21,0.8
	c-0.54,0.32-0.93,0.68-1.14,1.09c-0.21,0.4-0.32,0.8-0.32,1.19c0,0.77,0.34,1.4,1.03,1.88c0.69,0.49,1.74,0.73,3.16,0.73
	c0.57,0,1.22-0.04,1.96-0.12c0.74-0.08,1.51-0.17,2.33-0.27c0.81-0.1,1.65-0.19,2.49-0.27c0.85-0.08,1.67-0.12,2.47-0.12
	c1.51,0,2.85,0.17,4.01,0.51c1.17,0.34,2.15,0.82,2.93,1.45c0.79,0.63,1.38,1.39,1.79,2.29c0.4,0.89,0.61,1.89,0.61,2.99
	c0,1.48-0.34,2.8-1.03,3.95c-0.68,1.15-1.66,2.13-2.93,2.92c-1.26,0.8-2.79,1.4-4.57,1.81c-1.78,0.41-3.77,0.61-5.96,0.61
	c-1.45,0-2.86-0.09-4.24-0.27c-1.38-0.18-2.7-0.44-3.96-0.77c-1.27-0.33-2.47-0.73-3.62-1.19c-1.14-0.47-2.2-0.98-3.18-1.54
	L162.51,25.19z M146.27,28.29c1.4,0,2.47-0.3,3.2-0.9c0.72-0.6,1.09-1.45,1.09-2.54c0-1.09-0.36-1.95-1.09-2.56
	c-0.73-0.61-1.79-0.92-3.2-0.92h-10.61v6.93H146.27z M146.17,17.01c0.45,0,0.89,0.02,1.32,0.04c0.73-0.7,1.1-1.5,1.1-2.39
	c0-0.93-0.36-1.65-1.09-2.16c-0.73-0.5-1.79-0.76-3.2-0.76h-8.64v5.27H146.17z M130.45,7.15h13.72c1.68,0,3.13,0.18,4.37,0.53
	c1.24,0.36,2.28,0.85,3.1,1.47c0.82,0.63,1.43,1.37,1.83,2.23c0.4,0.86,0.6,1.79,0.6,2.79c0,1.63-0.51,3.06-1.54,4.28
	c1.18,0.7,2.06,1.61,2.65,2.73c0.58,1.12,0.87,2.39,0.87,3.81c0,1.19-0.2,2.27-0.6,3.23c-0.4,0.96-1.01,1.79-1.82,2.47
	c-0.82,0.68-1.84,1.21-3.09,1.58c-1.24,0.36-2.71,0.55-4.39,0.55h-15.69V7.15z M94.08,7.15h5.21l9.33,9.36l9.33-9.36h5.21v25.67
	h-5.21V14.36l-9.33,8.99l-9.33-8.99v18.46h-5.21V7.15z M66.07,7.15h21.86v4.56H71.28v5.12h14.75v4.29H71.28v7.14h17v4.55H66.07V7.15
	z"/>
</svg>
