<?xml version="1.0" encoding="UTF-8"?>
<svg width="793.6" height="793.6" version="1.1" viewBox="0 0 793.6 793.6" xmlns="http://www.w3.org/2000/svg">
 <g transform="matrix(1.3333 0 0 -1.3333 0 793.6)" fill="#1f4fa2">
  <g fill-rule="evenodd">
   <path d="m157.82 144.14 119.95 80.557h246.38v-127.45h-225.89c-52.484-1.2638-101.1 15.955-140.44 46.893"/>
   <path d="m157.82 144.14c-9.86 7.006-18.464 15.667-26.775 24.323l-10.244-7.977-51.52 48.84v-111.4h118.6l-41.952 38.237z"/>
   <path d="m236.5 248.24-105.45-79.779c-37.599 40.571-60.795 95.734-60.795 154.98 0 127.06 103.13 230.19 228.01 230.19 104.1 0 192.35-70.929 219.31-166.66l-240.77-162.28c-15.56 4.281-29.382 12.649-40.305 23.545l131.84 102.16c-13.921 27.242-42.628 46.215-74.716 46.215-46.879 0-84.865-38.624-84.865-85.521 0-24.616 11.887-47.478 27.739-62.849"/>
   <path d="m497.45 63.104h5.906c3.822 0 6.216 0.1594 7.169 0.482 0.953 0.3264 1.7 0.8843 2.235 1.6699 0.539 0.7932 0.809 1.7799 0.809 2.9678 0 1.3321-0.353 2.4024-1.063 3.2222-0.71 0.8159-1.712 1.3321-3.01 1.5446-0.641 0.0911-2.584 0.1404-5.814 0.1404h-6.232zm-7.977-22.805v39.516h16.798c4.22 0 7.283-0.3568 9.203-1.0703 1.909-0.7097 3.442-1.9735 4.596-3.7876 1.142-1.8141 1.723-3.8825 1.723-6.2241 0-2.9641-0.877-5.4082-2.615-7.3399-1.746-1.9318-4.353-3.1538-7.818-3.6548 1.727-1.0019 3.146-2.1139 4.273-3.3132 1.124-1.2069 2.634-3.3398 4.539-6.4177l4.824-7.708h-9.537l-5.769 8.5999c-2.049 3.0665-3.45 5.0059-4.209 5.8066-0.751 0.8008-1.552 1.3473-2.395 1.6434-0.846 0.296-2.186 0.4478-4.015 0.4478h-1.621v-16.498zm-18.946 15.636-5.442 14.661-5.336-14.661zm14.692-15.636h-8.684l-3.446 8.9794h-15.795l-3.257-8.9794h-8.467l15.386 39.516h8.44zm-51.213 0h7.9775v39.516h-7.9775zm-45.846 0v39.516h11.94l7.169-26.957 7.086 26.957h11.974v-39.516h-7.42v31.105l-7.837-31.105h-7.685l-7.811 31.105v-31.105zm-36.225 19.784c0-4.4745 1.032-7.8674 3.097-10.175 2.072-2.3075 4.691-3.4612 7.871-3.4612 3.181 0 5.792 1.1462 7.834 3.4347 2.034 2.2923 3.055 5.7269 3.055 10.312 0 4.5277-0.991 7.9054-2.98 10.133-1.981 2.224-4.622 3.3397-7.909 3.3397-3.29 0-5.939-1.1233-7.947-3.3777-2.015-2.2581-3.021-5.6586-3.021-10.205m-8.216-0.2694c0 4.0229 0.599 7.4006 1.798 10.133 0.904 2.0153 2.126 3.818 3.686 5.4196 1.552 1.5978 3.256 2.7857 5.104 3.5599 2.463 1.0399 5.298 1.5598 8.517 1.5598 5.821 0 10.478-1.8027 13.977-5.4195 3.492-3.6055 5.238-8.6303 5.238-15.067 0-6.3759-1.731-11.367-5.204-14.968-3.465-3.6054-8.099-5.4082-13.901-5.4082-5.879 0-10.551 1.7952-14.016 5.3816-3.469 3.5827-5.199 8.5202-5.199 14.809m-27.231 13.317v-11.215h4.368c3.147 0 5.253 0.2088 6.308 0.6224 1.063 0.4137 1.89 1.0551 2.49 1.9394 0.607 0.8805 0.903 1.9014 0.903 3.0703 0 1.4422-0.421 2.6225-1.26 3.5599-0.85 0.9298-1.921 1.5181-3.207 1.7534-0.957 0.1783-2.865 0.2694-5.742 0.2694zm-7.974-32.832v39.516h12.805c4.851 0 8.012-0.1974 9.488-0.5921 2.262-0.592 4.156-1.8862 5.686-3.8711 1.525-1.9887 2.292-4.5466 2.292-7.6929 0-2.4289-0.444-4.4669-1.329-6.1216-0.876-1.6471-1.992-2.9527-3.351-3.8901-1.358-0.945-2.732-1.575-4.14-1.8786-1.905-0.3719-4.657-0.5655-8.274-0.5655h-5.203v-14.904zm-36.335 19.784c0-4.4745 1.036-7.8674 3.097-10.175 2.072-2.3075 4.695-3.4612 7.875-3.4612s5.788 1.1462 7.83 3.4347c2.038 2.2923 3.058 5.7269 3.058 10.312 0 4.5277-0.994 7.9054-2.983 10.133-1.981 2.224-4.622 3.3397-7.905 3.3397-3.294 0-5.939-1.1233-7.951-3.3777-2.015-2.2581-3.021-5.6586-3.021-10.205m-8.216-0.2694c0 4.0229 0.599 7.4006 1.798 10.133 0.908 2.0153 2.126 3.818 3.686 5.4196 1.552 1.5978 3.256 2.7857 5.104 3.5599 2.467 1.0399 5.302 1.5598 8.517 1.5598 5.821 0 10.482-1.8027 13.977-5.4195 3.492-3.6055 5.238-8.6303 5.238-15.067 0-6.3759-1.731-11.367-5.204-14.968-3.461-3.6054-8.099-5.4082-13.901-5.4082-5.879 0-10.551 1.7952-14.012 5.3816-3.473 3.5827-5.203 8.5202-5.203 14.809m-22.942-4.9907v6.6606h17.192v-15.739c-1.67-1.6168-4.091-3.0438-7.257-4.2734-3.176-1.2258-6.391-1.8483-9.639-1.8483-4.133 0-7.735 0.8691-10.805 2.6036-3.078 1.7344-5.382 4.2126-6.927 7.4347-1.548 3.2297-2.318 6.7365-2.318 10.532 0 4.1102 0.861 7.7688 2.588 10.968 1.723 3.1956 4.251 5.6511 7.568 7.3551 2.539 1.3131 5.692 1.9697 9.465 1.9697 4.907 0 8.736-1.0285 11.495-3.0855 2.752-2.057 4.528-4.8996 5.321-8.5278l-7.92-1.4839c-0.558 1.9393-1.609 3.4688-3.143 4.596-1.537 1.1233-3.453 1.6812-5.753 1.6812-3.492 0-6.259-1.1044-8.319-3.317-2.057-2.2088-3.086-5.484-3.086-9.8333 0-4.6909 1.044-8.209 3.127-10.554 2.084-2.3417 4.813-3.5144 8.194-3.5144 1.67 0 3.348 0.3226 5.025 0.9792 1.685 0.6565 3.127 1.4497 4.327 2.3871v5.0097zm-50.237 8.2811h5.905c3.822 0 6.216 0.1594 7.169 0.482 0.953 0.3264 1.697 0.8843 2.235 1.6699 0.539 0.7932 0.805 1.7799 0.805 2.9678 0 1.3321-0.349 2.4024-1.059 3.2222-0.713 0.8159-1.711 1.3321-3.009 1.5446-0.642 0.0911-2.589 0.1404-5.818 0.1404h-6.228zm-7.978-22.805v39.516h16.794c4.224 0 7.287-0.3568 9.203-1.0703 1.913-0.7097 3.446-1.9735 4.596-3.7876 1.146-1.8141 1.727-3.8825 1.727-6.2241 0-2.9641-0.877-5.4082-2.615-7.3399-1.746-1.9318-4.353-3.1538-7.818-3.6548 1.723-1.0019 3.146-2.1139 4.27-3.3132 1.127-1.2069 2.637-3.3398 4.542-6.4177l4.82-7.708h-9.533l-5.769 8.5999c-2.049 3.0665-3.45 5.0059-4.209 5.8066-0.751 0.8008-1.552 1.3473-2.395 1.6434-0.846 0.296-2.186 0.4478-4.015 0.4478h-1.62v-16.498zm-36.844 0v39.516h29.295v-6.6834h-21.321v-8.7631h19.838v-6.6606h-19.838v-10.748h22.081v-6.6606zm-39.777 0v39.516h7.761l16.175-26.392v26.392h7.408v-39.516h-8.004l-15.932 25.766v-25.766zm-36.901 0v39.516h29.295v-6.6834h-21.318v-8.7631h19.834v-6.6606h-19.834v-10.748h22.077v-6.6606z"/>
  </g>
  <path d="m496.11 552.36v-7e-3h-0.027v7e-3c-7.378-3e-3 -14.061-3.002-18.904-7.84-4.839-4.839-7.837-11.526-7.837-18.908h4e-3v-0.027h-4e-3c4e-3 -7.374 3.002-14.061 7.841-18.9 4.839-4.842 11.526-7.841 18.912-7.841v4e-3h0.026v-4e-3c7.367 4e-3 14.05 2.999 18.889 7.841l7e-3 -4e-3c4.839 4.843 7.837 11.534 7.837 18.916h-3e-3v0.022h3e-3c-3e-3 7.371-2.998 14.054-7.837 18.897v4e-3c-4.838 4.842-11.526 7.837-18.907 7.84m-0.027 3.139h0.027v-8e-3c8.247 0 15.719-3.347 21.128-8.755l3e-3 4e-3c5.401-5.405 8.744-12.874 8.748-21.121h4e-3v-0.022h-4e-3c-4e-3 -8.251-3.351-15.724-8.751-21.128v-8e-3c-5.405-5.404-12.874-8.748-21.117-8.751v-4e-3h-0.026v4e-3c-8.251 3e-3 -15.728 3.355-21.136 8.763-5.4 5.404-8.744 12.869-8.752 21.112h-3e-3v0.027h3e-3c4e-3 8.247 3.352 15.723 8.763 21.132 5.401 5.4 12.87 8.744 21.113 8.747z"/>
  <path d="m487.65 527.41h9.94c2.11 0 3.765 0.22 4.957 0.661 1.188 0.432 2.098 1.134 2.713 2.091 0.623 0.964 0.934 2.007 0.934 3.135 0 1.654-0.604 3.017-1.799 4.076-1.203 1.07-3.093 1.601-5.689 1.601h-11.056zm-4.626-19.519v34.943h15.496c3.108 0 5.476-0.315 7.101-0.945 1.62-0.626 2.914-1.731 3.886-3.325 0.972-1.586 1.454-3.343 1.454-5.267 0-2.475-0.801-4.57-2.407-6.263-1.609-1.704-4.087-2.785-7.438-3.248 1.222-0.585 2.155-1.165 2.789-1.738 1.348-1.241 2.63-2.79 3.837-4.646l6.08-9.511h-5.818l-4.622 7.268c-1.355 2.099-2.467 3.704-3.34 4.813-0.873 1.115-1.659 1.89-2.349 2.337-0.687 0.444-1.389 0.756-2.103 0.934-0.528 0.11-1.385 0.163-2.577 0.163h-5.363v-15.515z" fill-rule="evenodd"/>
 </g>
</svg>
