<?xml version="1.0" encoding="UTF-8" standalone="no"?>
<svg xmlns:inkscape="http://www.inkscape.org/namespaces/inkscape" xmlns:sodipodi="http://sodipodi.sourceforge.net/DTD/sodipodi-0.dtd" xmlns="http://www.w3.org/2000/svg" xmlns:svg="http://www.w3.org/2000/svg" xmlns:rdf="http://www.w3.org/1999/02/22-rdf-syntax-ns#" xmlns:cc="http://creativecommons.org/ns#" xmlns:dc="http://purl.org/dc/elements/1.1/" version="1.1" width="265.96701" height="354.742" id="svg4550" viewBox="0 0 265.96701 354.742">
  <metadata id="metadata4556"/>
  <defs id="defs4554"/>
  <path d="m 246.61385,118.7319 h -22.6332 c 0,24.9276 -8.813,46.2578 -26.4926,63.9372 -17.6794,17.6785 -39.0084,26.4926 -63.936,26.4926 -24.9288,0 -46.2575,-8.8141 -63.9372,-26.4926 -17.6797,-17.6794 -26.4923,-39.0096 -26.4923,-63.9372 0,-24.8232 8.6567,-46.0488 25.9716,-63.6239 17.3135,-17.5739 38.226,-26.3352 62.7888,-26.3352 V 6.1384001 c -30.8735,0 -57.1572,10.9510999 -78.8522,32.9076999 -21.6946,21.9552 -32.5414,48.4991 -32.5414,79.6858 0,31.29 11.0041,57.9385 33.0636,79.9994 22.0595,22.0584 48.708,33.0636 79.9991,33.0636 31.2902,0 57.9384,-11.0052 79.9982,-33.0636 22.0606,-22.0609 33.0636,-48.7094 33.0636,-79.9994 z m 0,-113.0625999 h -79.8937 l 31.915,31.9690999 -73.1145,73.0621 15.9576,15.9588 73.1676,-73.0105 31.968,31.968 z" style="fill:#e30016;fill-rule:evenodd" id="path4518"/>
  <path d="m 246.61385,118.7319 h -22.6332 c 0,24.9276 -8.813,46.2578 -26.4926,63.9372 -17.6794,17.6785 -39.0084,26.4926 -63.936,26.4926 -24.9288,0 -46.2575,-8.8141 -63.9372,-26.4926 -17.6797,-17.6794 -26.4923,-39.0096 -26.4923,-63.9372 0,-24.8232 8.6567,-46.0488 25.9716,-63.6239 17.3135,-17.5739 38.226,-26.3352 62.7888,-26.3352 V 6.1384001 c -30.8735,0 -57.1572,10.9510999 -78.8522,32.9076999 -21.6946,21.9552 -32.5414,48.4991 -32.5414,79.6858 0,31.29 11.0041,57.9385 33.0636,79.9994 22.0595,22.0584 48.708,33.0636 79.9991,33.0636 31.2902,0 57.9384,-11.0052 79.9982,-33.0636 22.0606,-22.0609 33.0636,-48.7094 33.0636,-79.9994 z m 0,-113.0625999 h -79.8937 l 31.915,31.9690999 -73.1145,73.0621 15.9576,15.9588 73.1676,-73.0105 31.968,31.968 z" style="fill:none;stroke:#e30016;stroke-width:11.3386;stroke-linecap:butt;stroke-linejoin:miter;stroke-dasharray:none" id="path4520"/>
  <path d="m 71.58585,275.5074 v 0 H 9.93255 v 6.8505 h 61.8384 c 0.6942,-0.4167 1.2033,-0.8949 1.5429,-1.4505 0.324,-0.54 0.4935,-1.1415 0.4935,-1.7895 0,-1.296 -0.7404,-2.4996 -2.2215,-3.6105 z m -27.4014,16.4778 H 26.87325 9.93255 v 18.0516 H 0.67544999 V 265.1394 H 76.76985 c 4.2582,0 6.3873,3.0549 6.3873,9.1647 v 7.4982 c 0,3.3789 -0.5244,5.9247 -1.5891,7.6218 -1.0644,1.7127 -2.6691,2.5611 -4.7982,2.5611 h -16.7556 z m 129.9713,18.0516 h -82.2966 v -44.7123 h 82.2966 v 10.1829 h -72.9468 v 6.8505 h 72.9468 v 9.6273 h -72.9468 v 6.8505 h 72.9468 z m 91.0911,0 h -75.2613 c -2.3604,0 -4.1349,-0.9102 -5.3382,-2.7153 -1.188,-1.8051 -1.7898,-4.5051 -1.7898,-8.1156 V 274.767 c 0,-3.1014 0.6018,-5.4309 1.7898,-7.0047 1.2033,-1.5582 2.9778,-2.3451 5.3382,-2.3451 h 75.2613 v 10.2753 h -71.2806 c -0.4167,0.7407 -0.756,1.4505 -1.0182,2.1447 -0.2625,0.6789 -0.4167,1.3269 -0.4629,1.9287 v 16.1076 l 0.9255,2.7771 h 71.8362 z" style="fill:#1b1918;fill-rule:evenodd" id="path4522"/>
  <path d="M 71.61895,275.542 H 9.96545 v 6.8508 h 61.8383 c 1.3896,-0.834 2.0364,-1.944 2.0364,-3.24 0,-1.296 -0.7404,-2.4996 -2.2212,-3.6108 z m -27.4019,16.4784 H 9.96545 v 18.0515 H 0.70864999 V 265.174 H 76.80295 c 4.2588,0 6.3876,3.0552 6.3876,9.1644 v 7.4988 c 0,6.7572 -2.1288,10.1832 -6.3876,10.1832 h -16.7556 z" style="fill:none;stroke:#1b1918;stroke-width:1.4173;stroke-linecap:butt;stroke-linejoin:miter;stroke-dasharray:none" id="path4524"/>
  <path d="m 174.17815,310.0719 h -82.2971 v -44.7131 h 82.2971 v 10.1832 h -72.9468 v 6.8508 h 72.9468 v 9.6276 h -72.9468 v 6.8507 h 72.9468 z" style="fill:none;stroke:#1b1918;stroke-width:1.4173;stroke-linecap:butt;stroke-linejoin:miter;stroke-dasharray:none" id="path4526"/>
  <path d="m 265.25815,310.0719 h -75.2615 c -4.7209,0 -7.128,-3.6107 -7.128,-10.8311 v -24.4392 c 0,-6.2028 2.4071,-9.3492 7.128,-9.3492 h 75.2615 v 10.2755 h -71.2811 c -0.8329,1.4809 -1.3884,2.8693 -1.4809,4.0729 v 16.1076 l 0.9264,2.7768 h 71.8356 z" style="fill:none;stroke:#1b1918;stroke-width:1.4173;stroke-linecap:butt;stroke-linejoin:miter;stroke-dasharray:none" id="path4528"/>
  <path d="m 17.13875,344.5701 v -5.1851 h 28.467 v 9.201 c 0,2.0081 -0.3218,3.5076 -0.9573,4.5074 -0.6437,0.9912 -1.6098,1.4913 -2.9061,1.4913 h -9.4042 -4.4226 -4.8801 -9.4043 -9.6584 c -1.1949,0 -2.0929,-0.5001 -2.7029,-1.4913 -0.60150001,-0.9998 -0.90650001,-2.4993 -0.90650001,-4.5074 v -13.4708 c 0,-1.7286 0.305,-3.0249 0.90650001,-3.8889 0.61,-0.8642 1.508,-1.2962 2.7029,-1.2962 h 37.7696 3.8634 v 5.5916 H 7.02245 c -0.9147,0.051 -1.3722,0.7625 -1.3722,2.135 v 4.7784 4.7786 c 0.4065,1.0165 0.864,1.5248 1.3722,1.5248 h 15.1487 16.8772 l 1.3725,-1.5248 v -2.6436 z m 78.3862,10.0146 h -45.1916 v -24.5532 h 5.1344 l 0.0507,9.3028 -0.0507,9.2009 h 40.0572 z m 9.862,-15.3012 v 15.3012 h -5.1341 v -24.5021 l 5.1341,-0.0511 z m 29.8905,-9.3027 -5.1344,-0.0507 -0.0507,18.9609 h -13.3186 c -0.2288,-0.0507 -0.4575,-0.2203 -0.6778,-0.4998 -0.2287,-0.2794 -0.4405,-0.6692 -0.6437,-1.1775 v -17.2836 h -5.2869 v 5.1851 13.4708 c 0,2.0081 0.305,3.5076 0.9065,4.5074 0.61,0.9912 1.508,1.4913 2.7028,1.4913 h 9.6585 9.4042 4.7277 4.5751 9.4042 c 1.2963,0 2.2623,-0.5001 2.9061,-1.4913 0.6355,-0.9998 0.9572,-2.4993 0.9572,-4.5074 v -13.4708 -5.1851 h -5.1848 v 7.7266 9.557 l -1.4236,1.6773 h -13.5218 z m 29.8905,9.3027 v 15.3012 h -5.1341 v -24.5021 l 5.1341,-0.0511 z m 50.0207,15.3012 h -41.328 c -1.2963,0 -2.2708,-0.5001 -2.9316,-1.4913 -0.6522,-0.9913 -0.9827,-2.4738 -0.9827,-4.4564 v -13.4203 c 0,-1.7028 0.3305,-2.9824 0.9827,-3.8464 0.6608,-0.8557 1.6353,-1.2877 2.9316,-1.2877 h 41.328 v 5.6423 h -39.1422 c -0.2287,0.4068 -0.4153,0.7966 -0.5593,1.1778 -0.144,0.3728 -0.2287,0.7285 -0.2539,1.059 v 8.8453 l 0.5082,1.525 h 39.4472 z m 49.9193,0 h -45.1917 v -24.5532 h 45.1917 v 5.5919 h -40.0573 v 3.7616 h 40.0573 v 5.2869 h -40.0573 v 3.7616 h 40.0573 z" style="fill:#1b1918;fill-rule:evenodd" id="path4530"/>
  <path d="m 17.12315,344.6189 v -5.1854 h 28.4678 v 9.2018 c 0,4.015 -1.2708,5.9987 -3.8642,5.9987 H 3.95825 c -2.3893,0 -3.60960001,-1.9837 -3.60960001,-5.9987 v -13.4714 c 0,-3.4571 1.22030001,-5.1851 3.60960001,-5.1851 h 41.6327 v 5.5919 H 7.00715 c -0.9141,0.0505 -1.3728,0.762 -1.3728,2.1348 v 9.557 c 0.4082,1.0162 0.8654,1.525 1.3728,1.525 h 32.027 l 1.3717,-1.525 v -2.6436 z" style="fill:none;stroke:#3b3b3b;stroke-width:0.216;stroke-linecap:butt;stroke-linejoin:miter;stroke-dasharray:none" id="path4532"/>
  <path d="m 95.51075,354.634 h -45.1919 v -24.5531 h 5.135 l 0.0502,9.3024 -0.0502,9.2004 h 40.0569 z" style="fill:none;stroke:#3b3b3b;stroke-width:0.216;stroke-linecap:butt;stroke-linejoin:miter;stroke-dasharray:none" id="path4534"/>
  <path d="m 105.39175,339.3329 v 15.3011 h -5.1335 v -24.5027 l 5.1335,-0.0504 z" style="fill:none;stroke:#3b3b3b;stroke-width:0.216;stroke-linecap:butt;stroke-linejoin:miter;stroke-dasharray:none" id="path4536"/>
  <path d="m 135.26105,330.0293 -5.135,-0.0505 -0.0504,18.9612 h -13.3186 c -0.4573,-0.1009 -0.9145,-0.6613 -1.3227,-1.6775 v -17.2837 h -5.2857 v 18.6565 c 0,4.015 1.2203,5.9987 3.6096,5.9987 h 37.7685 c 2.5934,0 3.8642,-1.9837 3.8642,-5.9987 v -18.6565 h -5.1851 v 17.2837 l -1.4233,1.6775 h -13.5215 z" style="fill:none;stroke:#3b3b3b;stroke-width:0.216;stroke-linecap:butt;stroke-linejoin:miter;stroke-dasharray:none" id="path4538"/>
  <path d="m 165.15175,339.3329 v 15.3011 h -5.1335 v -24.5027 l 5.1335,-0.0504 z" style="fill:none;stroke:#3b3b3b;stroke-width:0.216;stroke-linecap:butt;stroke-linejoin:miter;stroke-dasharray:none" id="path4540"/>
  <path d="m 215.15095,354.634 h -41.328 c -2.592,0 -3.9143,-1.9837 -3.9143,-5.9485 V 335.266 c 0,-3.4056 1.3223,-5.1347 3.9143,-5.1347 h 41.328 v 5.6424 h -39.1416 c -0.4584,0.8135 -0.7631,1.5766 -0.8147,2.2368 v 8.8452 l 0.5085,1.5251 h 39.4478 z" style="fill:none;stroke:#3b3b3b;stroke-width:0.216;stroke-linecap:butt;stroke-linejoin:miter;stroke-dasharray:none" id="path4542"/>
  <path d="m 265.07075,354.634 h -45.1919 v -24.5531 h 45.1919 v 5.5919 h -40.0569 v 3.7607 h 40.0569 v 5.2872 h -40.0569 v 3.7621 h 40.0569 z" style="fill:none;stroke:#3b3b3b;stroke-width:0.216;stroke-linecap:butt;stroke-linejoin:miter;stroke-dasharray:none" id="path4544"/>
</svg>