<?xml version="1.0" encoding="UTF-8" standalone="no"?>
<!-- Created with Inkscape (http://www.inkscape.org/) -->

<svg
   width="14.78556mm"
   height="16.036015mm"
   viewBox="0 0 14.785559 16.036014"
   version="1.1"
   id="svg11628"
   inkscape:version="1.1.2 (0a00cf5339, 2022-02-04)"
   sodipodi:docname="rocket.svg"
   xmlns:inkscape="http://www.inkscape.org/namespaces/inkscape"
   xmlns:sodipodi="http://sodipodi.sourceforge.net/DTD/sodipodi-0.dtd"
   xmlns="http://www.w3.org/2000/svg"
   xmlns:svg="http://www.w3.org/2000/svg">
  <sodipodi:namedview
     id="namedview11630"
     pagecolor="#ffffff"
     bordercolor="#666666"
     borderopacity="1.0"
     inkscape:pageshadow="2"
     inkscape:pageopacity="0.0"
     inkscape:pagecheckerboard="0"
     inkscape:document-units="mm"
     showgrid="false"
     fit-margin-top="0"
     fit-margin-left="0"
     fit-margin-right="0"
     fit-margin-bottom="0"
     inkscape:zoom="4"
     inkscape:cx="35.5"
     inkscape:cy="25.125"
     inkscape:window-width="1360"
     inkscape:window-height="714"
     inkscape:window-x="0"
     inkscape:window-y="0"
     inkscape:window-maximized="1"
     inkscape:current-layer="layer1" />
  <defs
     id="defs11625" />
  <g
     inkscape:label="Layer 1"
     inkscape:groupmode="layer"
     id="layer1"
     transform="translate(-8.5137945,-12.058151)">
    <path
       id="path26181"
       style="fill:#ffffff;fill-opacity:0.956588;fill-rule:evenodd;stroke:#cecece;stroke-width:0.264999;stroke-linecap:round;stroke-linejoin:miter;stroke-miterlimit:4;stroke-dasharray:none;stroke-opacity:0.371327"
       d="M 16.056138,26.109092 C 14.302135,25.73907 14.291542,24.087655 18.207611,19.900548 L 14.159646,17.304742 C 9.3296941,20.936594 4.3549507,28.205257 14.813157,27.955316"
       sodipodi:nodetypes="cccc" />
    <g
       id="g25934"
       transform="rotate(48.408384,13.932327,11.401218)">
      <path
         id="rect11837"
         style="fill:#c83737;fill-rule:evenodd;stroke-width:0.999999"
         d="m 78.015625,18.261719 c -4.751252,9.594369 -13.391604,19.75138 -9.089844,36.115234 h 9.089844 9.089844 C 91.40723,38.013102 82.766878,27.856087 78.015625,18.261719 Z"
         transform="scale(0.26458333)" />
      <path
         id="rect11837-3"
         style="fill:#ac9393;fill-rule:evenodd;stroke-width:0.999999"
         d="m 78.015625,18.261719 c -0.971415,1.961612 -2.107058,3.950923 -3.259766,6.007812 h 6.519532 c -1.152708,-2.056889 -2.288351,-4.0462 -3.259766,-6.007812 z"
         transform="scale(0.26458333)" />
      <circle
         style="fill:#4fdcff;fill-opacity:1;fill-rule:evenodd;stroke:#afafaf;stroke-width:0.430017;stroke-linecap:round;stroke-linejoin:round;stroke-miterlimit:4;stroke-dasharray:none;stroke-opacity:1"
         id="path13139"
         cx="20.61051"
         cy="10.569437"
         r="1.3792684" />
      <path
         style="fill:none;stroke:#ffffff;stroke-width:0.265;stroke-linecap:round;stroke-linejoin:miter;stroke-miterlimit:4;stroke-dasharray:none;stroke-opacity:1"
         d="m 19.807413,10.72738 c -0.116019,-0.538988 0.210199,-0.8108408 0.57704,-0.9397086"
         id="path15436"
         sodipodi:nodetypes="cc" />
      <path
         style="fill:none;stroke:#871212;stroke-width:0.265;stroke-linecap:round;stroke-linejoin:miter;stroke-miterlimit:4;stroke-dasharray:none;stroke-opacity:1"
         d="m 22.685945,14.123987 c 0.33125,-1.544116 0.503676,-3.158084 -0.259643,-5.1769398"
         id="path15859"
         sodipodi:nodetypes="cc" />
      <path
         style="fill:none;stroke:#ffffff;stroke-width:0.265;stroke-linecap:round;stroke-linejoin:miter;stroke-miterlimit:4;stroke-dasharray:none;stroke-opacity:0.62371"
         d="M 20.279047,6.130421 20.617593,5.4963779"
         id="path16240"
         sodipodi:nodetypes="cc" />
      <path
         id="rect18108-6-5"
         style="fill:#35353d;fill-opacity:1;fill-rule:evenodd;stroke-width:0.244183"
         d="m 19.793778,14.797 h 1.716615 l 0.249773,0.705609 h -2.216 z"
         sodipodi:nodetypes="ccccc" />
      <path
         id="rect18108"
         style="fill:#535360;fill-opacity:1;fill-rule:evenodd;stroke-width:0.244183"
         d="m 18.486612,14.797273 h 1.716615 L 20.453,15.502882 h -2.216 z"
         sodipodi:nodetypes="ccccc" />
      <path
         id="rect18108-6"
         style="fill:#535360;fill-opacity:1;fill-rule:evenodd;stroke-width:0.244183"
         d="m 21.079612,14.797273 h 1.716615 L 23.046,15.502882 H 20.83 Z"
         sodipodi:nodetypes="ccccc" />
      <rect
         style="fill:#7a7a85;fill-opacity:1;fill-rule:evenodd;stroke-width:0.211177"
         id="rect17770"
         width="4.8100433"
         height="0.41003668"
         x="18.236612"
         y="14.387236" />
      <path
         id="rect18890"
         style="fill:#ffcc00;fill-opacity:1;fill-rule:evenodd;stroke-width:0.276533"
         d="m 18.676615,15.502882 h 3.929768 c 0.0068,0.0753 -0.392781,2.30723 -1.822438,2.298361 -1.66213,-0.01031 -1.788946,-0.598334 -2.10733,-2.298361 z"
         sodipodi:nodetypes="ccsc" />
      <path
         id="rect22403"
         style="fill:#ffcc00;fill-rule:evenodd;stroke-width:0.29242"
         d="m 19.043958,16.998525 h 1.012782 l -0.438564,1.581987 z"
         sodipodi:nodetypes="cccc" />
      <path
         id="rect22403-9"
         style="fill:#ffcc00;fill-rule:evenodd;stroke-width:0.29242"
         d="m 21.195306,16.735092 h 1.012782 l -0.438564,1.581987 z"
         sodipodi:nodetypes="cccc" />
      <path
         id="rect22403-9-4"
         style="fill:#ffcc00;fill-rule:evenodd;stroke-width:0.29242"
         d="m 19.710825,17.456899 h 1.012781 l -0.438563,1.581987 z"
         sodipodi:nodetypes="cccc" />
      <path
         id="rect22403-9-4-8"
         style="fill:#ffcc00;fill-rule:evenodd;stroke-width:0.29242"
         d="m 20.526799,17.39988 h 1.012782 l -0.438564,1.581987 z"
         sodipodi:nodetypes="cccc" />
      <path
         id="rect18890-1"
         style="fill:#ff8d00;fill-opacity:1;fill-rule:evenodd;stroke-width:0.174547"
         d="M 19.258704,15.502882 H 22.02432 C 21.928,15.607583 21.666136,16.863236 20.741759,16.80401 19.581721,16.72968 19.622667,16.76302 19.258704,15.502882 Z"
         sodipodi:nodetypes="ccsc" />
      <path
         id="rect22403-2"
         style="fill:#ff8d00;fill-opacity:1;fill-rule:evenodd;stroke-width:0.17203"
         d="m 19.503183,16.295491 h 0.595816 l -0.258005,0.930678 z"
         sodipodi:nodetypes="cccc" />
      <path
         id="rect22403-2-9"
         style="fill:#ff8d00;fill-opacity:1;fill-rule:evenodd;stroke-width:0.17203"
         d="m 19.908416,16.612025 h 0.595816 l -0.258005,0.930678 z"
         sodipodi:nodetypes="cccc" />
      <path
         id="rect22403-2-9-3"
         style="fill:#ff8d00;fill-opacity:1;fill-rule:evenodd;stroke-width:0.17203"
         d="m 20.678094,16.664427 h 0.595816 l -0.258005,0.930678 z"
         sodipodi:nodetypes="cccc" />
      <path
         id="rect22403-2-9-3-9"
         style="fill:#ff8d00;fill-opacity:1;fill-rule:evenodd;stroke-width:0.17203"
         d="m 21.098723,16.213301 h 0.595816 l -0.258005,0.930678 z"
         sodipodi:nodetypes="cccc" />
    </g>
    <path
       id="path29928"
       style="fill:#f4f4f4;fill-opacity:1;fill-rule:evenodd;stroke:#c8c8c8;stroke-width:0.264583px;stroke-linecap:round;stroke-linejoin:miter;stroke-opacity:0.992157"
       d="m 11.115922,20.986902 c -1.192433,0.956939 -0.406338,1.731505 0.576567,1.425276 v 0 c -0.713593,2.141228 1.501495,1.046952 1.707523,0.940446 v 0 c 0.966878,1.507819 2.143181,-0.398181 2.045916,-0.780024"
       sodipodi:nodetypes="cccccc" />
    <path
       style="fill:#ffffff;fill-opacity:1;stroke:#c9c9c9;stroke-width:0.264583px;stroke-linecap:round;stroke-linejoin:miter;stroke-opacity:1"
       d="m 14.449533,22.542549 c 0.536513,0.50481 1.790966,0.04892 2.124789,-0.607768"
       id="path29932" />
    <path
       style="fill:#ffffff;fill-opacity:1;stroke:#c9c9c9;stroke-width:0.265;stroke-linecap:round;stroke-linejoin:miter;stroke-miterlimit:4;stroke-dasharray:none;stroke-opacity:1"
       d="m 11.285099,19.903396 c -0.469851,1.288702 0.409901,1.965514 1.152092,1.318998"
       id="path29934" />
    <path
       style="fill:#f4f4f4;fill-opacity:1;stroke:#c9c9c9;stroke-width:0.264583px;stroke-linecap:round;stroke-linejoin:miter;stroke-opacity:1"
       d="m 9.2745206,22.772375 c -0.3323862,1.461637 0.8441304,1.95056 1.5445214,1.341996"
       id="path29940" />
    <path
       id="path29948"
       style="fill:#f4f4f4;fill-opacity:1;stroke:#c9c9c9;stroke-width:0.264583px;stroke-linecap:round;stroke-linejoin:round;stroke-opacity:1"
       d="m 11.146786,27.522859 c 0.78423,0.475476 1.73681,-0.09718 1.9155,-0.496072 v 0 c 0.808325,0.389312 1.540103,-0.684444 1.656848,-1.046936"
       sodipodi:nodetypes="cccc" />
    <path
       style="fill:#f4f4f4;fill-opacity:1;stroke:#c9c9c9;stroke-width:0.264583px;stroke-linecap:round;stroke-linejoin:miter;stroke-opacity:1"
       d="M 9.4731985,26.810614 C 10.077165,27.500772 11.202222,27.01894 11.493062,26.69261"
       id="path29948-0"
       sodipodi:nodetypes="cc" />
    <path
       id="rect66216"
       style="fill:#f4f4f4;fill-opacity:1;fill-rule:evenodd;stroke-width:0.264583"
       d="m 10.088795,25.202206 c 1.692533,-0.0795 3.110767,-0.234395 4.877703,-0.562885 -1.878492,0.130994 -3.059566,0.600416 -4.877703,0.562885 z"
       sodipodi:nodetypes="ccc" />
    <path
       id="path29942"
       style="fill:#f4f4f4;fill-opacity:1;stroke:#c9c9c9;stroke-width:0.264583px;stroke-linecap:round;stroke-linejoin:miter;stroke-opacity:1"
       d="m 10.088795,25.202206 c 0.532012,1.603331 2.469016,0.512052 2.740893,0.163967 v 0 c 0.977538,0.863332 1.92246,-0.388298 2.13681,-0.726852"
       sodipodi:nodetypes="cccc" />
  </g>
</svg>
