<?xml version="1.0" encoding="UTF-8"?>
<svg width="77.931mm" height="41.168mm" version="1.1" viewBox="0 0 77.931 41.168" xml:space="preserve" xmlns="http://www.w3.org/2000/svg"><g transform="translate(-132.54 -243.27)"><g fill="#44446c" fill-rule="evenodd"><circle cx="172" cy="270.26" r="5.5017"/><path transform="matrix(1.0431 0 0 1.0431 -31.083 15.86)" d="m187.18 254.45-1.9578 1.0708-1.0708 1.9578-1.0708-1.9578-1.9578-1.0708 1.9578-1.0708 1.0708-1.9578 1.0708 1.9578z"/><path transform="matrix(1.0431 0 0 1.0431 -42.531 -15.462)" d="m187.18 254.45-1.9578 1.0708-1.0708 1.9578-1.0708-1.9578-1.9578-1.0708 1.9578-1.0708 1.0708-1.9578 1.0708 1.9578z"/><path transform="matrix(1.0431 0 0 1.0431 -4.6064 -4.4047)" d="m187.18 254.45-1.9578 1.0708-1.0708 1.9578-1.0708-1.9578-1.9578-1.0708 1.9578-1.0708 1.0708-1.9578 1.0708 1.9578z"/><path transform="matrix(.87161 0 0 .87161 16.552 33.232)" d="m165.98 259.63-1.5837 0.86618-0.86618 1.5838-0.86618-1.5838-1.5838-0.86618 1.5838-0.86618 0.86618-1.5837 0.86618 1.5837z"/><path transform="matrix(.87161 0 0 .87161 51.472 22.931)" d="m165.98 259.63-1.5837 0.86618-0.86618 1.5838-0.86618-1.5838-1.5838-0.86618 1.5838-0.86618 0.86618-1.5837 0.86618 1.5837z"/><path transform="matrix(.87161 0 0 .87161 40.129 54.465)" d="m165.98 259.63-1.5837 0.86618-0.86618 1.5838-0.86618-1.5838-1.5838-0.86618 1.5838-0.86618 0.86618-1.5837 0.86618 1.5837z"/><path transform="matrix(.87161 0 0 .87161 51.724 48.975)" d="m165.98 259.63-1.5837 0.86618-0.86618 1.5838-0.86618-1.5838-1.5838-0.86618 1.5838-0.86618 0.86618-1.5837 0.86618 1.5837z"/><path transform="matrix(.5264 0 0 .5264 116.49 127.49)" d="m165.98 259.63-1.5837 0.86618-0.86618 1.5838-0.86618-1.5838-1.5838-0.86618 1.5838-0.86618 0.86618-1.5837 0.86618 1.5837z"/><path transform="matrix(.5264 0 0 .5264 122.54 117.81)" d="m165.98 259.63-1.5837 0.86618-0.86618 1.5838-0.86618-1.5838-1.5838-0.86618 1.5838-0.86618 0.86618-1.5837 0.86618 1.5837z"/><path transform="matrix(.5264 0 0 .5264 123.09 136.4)" d="m165.98 259.63-1.5837 0.86618-0.86618 1.5838-0.86618-1.5838-1.5838-0.86618 1.5838-0.86618 0.86618-1.5837 0.86618 1.5837z"/><path transform="matrix(.5264 0 0 .5264 47.742 117.36)" d="m165.98 259.63-1.5837 0.86618-0.86618 1.5838-0.86618-1.5838-1.5838-0.86618 1.5838-0.86618 0.86618-1.5837 0.86618 1.5837z"/><path transform="matrix(.5264 0 0 .5264 56.157 124.55)" d="m165.98 259.63-1.5837 0.86618-0.86618 1.5838-0.86618-1.5838-1.5838-0.86618 1.5838-0.86618 0.86618-1.5837 0.86618 1.5837z"/><path transform="matrix(.5264 0 0 .5264 51.863 139.6)" d="m165.98 259.63-1.5837 0.86618-0.86618 1.5838-0.86618-1.5838-1.5838-0.86618 1.5838-0.86618 0.86618-1.5837 0.86618 1.5837z"/><path transform="matrix(.87161 0 0 .87161 6.3489 42.909)" d="m165.98 259.63-1.5837 0.86618-0.86618 1.5838-0.86618-1.5838-1.5838-0.86618 1.5838-0.86618 0.86618-1.5837 0.86618 1.5837z"/><ellipse transform="rotate(-19.483)" cx="71.738" cy="312.41" rx="8.1168" ry="2.4098"/><rect x="176.18" y="255.05" width="2.8525" height="5.6935" rx=".85361" ry=".85361" stroke-width=".27172"/></g><g transform="matrix(.87161 0 0 .87161 19.672 30.782)"><rect x="168.19" y="250.53" width="3.2727" height="6.5322" rx=".97935" ry=".97935" fill="#44446c" fill-rule="evenodd" stroke-width=".31175"/><path d="m173.98 247.51h-8.3877c0-2.057 1.8777-3.7245 4.1939-3.7245s4.1939 1.6675 4.1939 3.7245z" fill="#44446c" fill-rule="evenodd" stroke-linecap="round" stroke-linejoin="round" stroke-width="3.5324"/><g fill="none" stroke="#44446c" stroke-width=".8"><path d="m166.36 247.04 3.6016 4.7575"/><path d="m173.44 247.04-3.6016 4.7575"/><path d="m169.85 247.07v4.6392"/></g></g><g><path d="m174.29 255.86h2.183" fill="none" stroke="#44446c" stroke-width=".69729"/><g transform="matrix(.87161 0 0 .87161 12.644 31.273)" stroke-width=".8"><circle transform="rotate(-20.789)" cx="81.917" cy="306.7" r=".47301" fill="#44446c" fill-rule="evenodd"/><circle cx="185.42" cy="257.66" r="1.3705" fill="none" stroke="#44446c" stroke-linecap="round" stroke-linejoin="round" stroke-width=".8"/></g><path d="m180.94 255.86h-2.183" fill="none" stroke="#44446c" stroke-width=".69729"/><g transform="matrix(-.87161 0 0 .87161 342.59 31.272)" stroke-width=".8"><circle transform="rotate(-20.789)" cx="81.917" cy="306.7" r=".47301" fill="#44446c" fill-rule="evenodd"/><circle cx="185.42" cy="257.66" r="1.3705" fill="none" stroke="#44446c" stroke-linecap="round" stroke-linejoin="round" stroke-width=".8"/></g></g></g></svg>
