<?xml version="1.0" encoding="UTF-8"?>
<svg width="185.93mm" height="50.257mm" version="1.1" viewBox="0 0 185.93 50.257" xmlns="http://www.w3.org/2000/svg">
    <style>
        @keyframes blink {
            0% {opacity: 1.0;}
            50% {opacity: 0.1;}
            100% {opacity: 1.0;}
        }

        g#stars1 {
            animation: 5s linear 0s blink infinite; 
        }

        g#stars2 {
            animation: 5s linear -2s blink infinite; 
        }

        g#stars3 {
            animation: 4s linear -3s blink infinite; 
        }
    </style>
    <g transform="translate(-156.37 -255.65)" fill-rule="evenodd">
        <path d="m225.54 264.16c-24.273-14.383-43.012 6.9059-30.211 12.812 6.7614 3.1195 11.403-0.47182 17.477 4.5734 5.8019 4.8192 1.7472 13.372 11.289 15.933s25.718-18.936 1.4451-33.319z" fill-opacity=".082391" stroke-width=".54364"/>
        <path d="m168.28 301.41c11.062 15.747 34.646-15.352 20.548-15.352 0 0-13.175 2.758-19.374-1.1001-1.8039-1.1227-1.0778-4.2349-5.5658-4.3791s-6.6701 5.0837 4.3919 20.831z" fill-opacity=".20014" stroke-width=".54364"/>
        <path d="m316.72 256.15c25.261 1.9306 20.474 19.209 10.282 19.209s-9.2383-6.2049-13.516-8.9947c-4.2778-2.7898-15.075 3.3908-17.531-0.0526-2.4564-3.4434-4.4959-12.093 20.765-10.162z" fill-opacity=".20014" stroke-width=".43214"/>
        <g stroke-width=".54364">
            <path d="m301.5 275.99c-29.933-5.7102-53.484-3.4616-46.842 12.712 6.6422 16.174 13.491 8.829 24.421 5.6476s5.3304 8.01 34.988 10.622c29.658 2.6118 17.366-23.271-12.567-28.981z" fill-opacity=".082391"/>
            <path d="m342.3 258.75c-2.7728 0.12907-6.1213 0.6445-10.144 1.65-29.563 7.3896-49.992 19.322-37.171 31.21 12.821 11.888 15.952 2.3461 24.534-5.1315 6.7272-5.8611 15.657-3.2924 22.781-5.1186v-22.61z" fill-opacity=".082391"/>
            <path d="m157.57 258.72c-0.38594 2e-3 -0.78927 0.016-1.2004 0.0351v22.61c1.9649-0.50368 3.7933-1.34 5.3992-2.7818 6.2676-5.6271 11.94-19.96-4.1987-19.863z" fill-opacity=".082391"/>
            <path d="m245.46 257.44c7.715-3.7482 32.462-0.18405 31.225 5.8101-0.59666 2.8906-9.436 5.9316-17.25 6.0932-7.7533 0.16039-11.207 8.1349-17.831 4.4568-12.793-7.1037-3.8593-12.612 3.8557-16.36z" fill-opacity=".20014"/>
        </g>
        <g fill-opacity=".082391">
            <path d="m230.09 275.09c-24.17 0.4953-22.741 27.059-6.1335 30.815h9.3291c7.3899-1.1755 14.907-3.9807 22.957-0.24495 0.17034 0.07906 0.33347 0.16326 0.50023 0.24495h28.815c-5.6619-9.6939-18.432-21.427-39.313-28.089-6.3095-2.013-11.672-2.8178-16.155-2.7259z" stroke-width=".75062"/>
            <path d="m223.95 255.65c0.0238 5e-3 0.0465 0.0123 0.0703 0.0176 3.0839 0.68365 6.1601 0.47536 9.2589-0.0176zm32.786 0c10.517 5.1517 14.042 15.418 26.888 16.028 6.3021 0.2994 7.2143-6.9752 1.9265-16.028z" stroke-width=".75062"/>
            <path d="m171.07 255.65c7.6192 15.69 14.816 19.637 19.382 18.876 4.5655-0.7612 20.45-3.4894 20.45-9.5266s-9.4906-4.4841-10.794-9.3491z" stroke-width=".62048"/>
            <path d="m183.56 280.77c-9.1194 0.0606-18.135 7.8007-14.767 19.324 0.55503 1.8994 1.3285 3.8504 2.2774 5.8043h29.037c-1.767-4.982 2.519-9.8776-4.5418-19.269-3.0733-4.0876-7.5518-5.8897-12.005-5.8601z" stroke-width=".62048"/>
        </g>
    </g>
    <g fill="#f2f2f2" fill-rule="evenodd">
        <circle transform="scale(1,-1)" cx="92.257" cy="-28.815" r=".5865" fill-opacity=".49603"/>
        <circle transform="scale(1,-1)" cx="85.848" cy="-34.051" r=".5865" fill-opacity=".49603"/>
        <circle transform="scale(1,-1)" cx="61.511" cy="-14.278" r=".5865" fill-opacity=".49603"/>
        <circle transform="scale(1,-1)" cx="91.419" cy="-37.361" r=".5865" fill-opacity=".49603"/>
        <g fill-opacity=".49603">
            <circle transform="scale(1,-1)" cx="121.84" cy="-45.015" r=".5865"/>
            <circle transform="scale(1,-1)" cx="108.99" cy="-47.657" r=".5865"/>
            <circle transform="scale(1,-1)" cx="36.348" cy="-14.368" r=".5865"/>
            <circle transform="scale(1,-1)" cx="42.639" cy="-4.893" r=".5865"/>
            <circle transform="scale(1,-1)" cx="29.086" cy="-8.2327" r=".5865"/>
            <circle transform="scale(1,-1)" cx="20.465" cy="-2.563" r=".5865"/>
        </g>
        <g fill-opacity=".49603">
            <circle transform="scale(1,-1)" cx="82.626" cy="-43.603" r=".5865"/>
            <circle transform="scale(1,-1)" cx="59.153" cy="-36.801" r=".5865"/>
            <circle transform="scale(1,-1)" cx="66.75" cy="-43.919" r=".5865"/>
        </g>
        <circle transform="scale(1,-1)" cx="127.12" cy="-42.183" r=".5865" fill-opacity=".19783"/>
        <circle transform="scale(1,-1)" cx="135.18" cy="-47.119" r=".5865" fill-opacity=".19783"/>
        <g fill-opacity=".49603">
            <circle transform="scale(1,-1)" cx="43.416" cy="-15.067" r=".5865"/>
            <circle transform="scale(1,-1)" cx="24.621" cy="-37.436" r=".5865"/>
            <circle transform="scale(1,-1)" cx="169.92" cy="-11.533" r=".5865"/>
            <circle transform="scale(1,-1)" cx="158.55" cy="-5.1075" r=".5865"/>
            <circle transform="scale(1,-1)" cx="166.52" cy="-15.611" r=".5865"/>
            <circle transform="scale(1,-1)" cx="99.181" cy="-5.2814" r=".5865"/>
            <circle transform="scale(1,-1)" cx="87.686" cy="-14.757" r=".5865"/>
            <circle transform="scale(1,-1)" cx="114.48" cy="-7.5337" r=".5865"/>
            <circle transform="scale(1,-1)" cx="36.271" cy="-48.542" r=".5865"/>
            <circle transform="scale(1,-1)" cx="23.533" cy="-46.367" r=".5865"/>
            <circle transform="scale(1,-1)" cx="38.989" cy="-38.678" r=".5865"/>
            <circle transform="scale(1,-1)" cx="29.281" cy="-28.116" r=".5865"/>
            <circle transform="scale(1,-1)" cx="3.029" cy="-20.349" r=".5865"/>
            <circle transform="scale(1,-1)" cx="5.5664" cy="-13.745" r=".5865"/>
            <circle transform="scale(1,-1)" cx="182.67" cy="-13.669" r=".5865"/>
            <circle transform="scale(1,-1)" cx="179.8" cy="-6.0581" r=".5865"/>
            <circle transform="scale(1,-1)" cx="175.14" cy="-23.611" r=".5865"/>
            <circle transform="scale(1,-1)" cx="161.24" cy="-21.281" r=".5865"/>
            <circle transform="scale(1,-1)" cx="150.67" cy="-16.776" r=".5865"/>
            <circle transform="scale(1,-1)" cx="144.77" cy="-26.951" r=".5865"/>
            <circle transform="scale(1,-1)" cx="154.87" cy="-37.436" r=".5865"/>
            <circle transform="scale(1,-1)" cx="154.33" cy="-44.115" r=".5865"/>
            <circle transform="scale(1,-1)" cx="137.78" cy="-35.882" r=".5865"/>
            <circle transform="scale(1,-1)" cx="167.92" cy="-38.29" r=".5865"/>
            <circle transform="scale(1,-1)" cx="1.5533" cy="-6.6017" r=".5865"/>
            <circle transform="scale(1,-1)" cx="127.92" cy="-5.9027" r=".5865"/>
            <circle transform="scale(1,-1)" cx="119.19" cy="-1.8273" r=".5865"/>
            <circle transform="scale(1,-1)" cx="119.84" cy="-10.951" r=".5865"/>
            <circle transform="scale(1,-1)" cx="123.41" cy="-7.8444" r=".5865"/>
        </g>
        <g fill-opacity=".19783">
            <circle transform="scale(1,-1)" cx="178.29" cy="-47.998" r=".5865"/>
            <circle transform="scale(1,-1)" cx="182.13" cy="-41.74" r=".5865"/>
            <circle transform="scale(1,-1)" cx="174.87" cy="-31.261" r=".5865"/>
            <circle transform="scale(1,-1)" cx="182.95" cy="-31.038" r=".5865"/>
            <circle transform="scale(1,-1)" cx="137.94" cy="-16.31" r=".5865"/>
            <circle transform="scale(1,-1)" cx="145.63" cy="-13.592" r=".5865"/>
            <circle transform="scale(1,-1)" cx="136.07" cy="-8.3104" r=".5865"/>
            <circle transform="scale(1,-1)" cx="133.74" cy="-2.4854" r=".5865"/>
            <circle transform="scale(1,-1)" cx="176.85" cy="-2.4077" r=".5865"/>
            <circle transform="scale(1,-1)" cx="113.47" cy="-15.456" r=".5865"/>
            <circle transform="scale(1,-1)" cx="103.38" cy="-17.087" r=".5865"/>
            <circle transform="scale(1,-1)" cx="96.538" cy="-21.414" r=".5865"/>
            <circle transform="scale(1,-1)" cx="74.638" cy="-6.3687" r=".5865"/>
            <circle transform="scale(1,-1)" cx="82.871" cy="-2.2524" r=".5865"/>
            <circle transform="scale(1,-1)" cx="63.221" cy="-3.1844" r=".5865"/>
            <circle transform="scale(1,-1)" cx="50.416" cy="-1.7574" r=".5865"/>
            <circle transform="scale(1,-1)" cx="46.901" cy="-46.352" r=".5865"/>
            <circle transform="scale(1,-1)" cx="53.774" cy="-29.309" r=".5865"/>
            <circle transform="scale(1,-1)" cx="46.48" cy="-26.997" r=".5865"/>
            <circle transform="scale(1,-1)" cx="45.049" cy="-34.027" r=".5865"/>
            <circle transform="scale(1,-1)" cx="26.116" cy="-21.205" r=".5865"/>
            <circle transform="scale(1,-1)" cx="15.817" cy="-4.3935" r=".5865"/>
            <circle transform="scale(1,-1)" cx="8.2379" cy="-1.3181" r=".5865"/>
            <circle transform="scale(1,-1)" cx="14.169" cy="-10.544" r=".5865"/>
            <circle transform="scale(1,-1)" cx="16.256" cy="-24.164" r=".5865"/>
            <circle transform="scale(1,-1)" cx="10.435" cy="-21.638" r=".5865"/>
            <circle transform="scale(1,-1)" cx="1.9771" cy="-30.096" r=".5865"/>
            <circle transform="scale(1,-1)" cx="2.3066" cy="-38.663" r=".5865"/>
            <circle transform="scale(1,-1)" cx="8.7871" cy="-46.791" r=".5865"/>
        </g>
        <g fill-opacity=".49603">
            <circle transform="scale(1,-1)" cx="138.33" cy="-31.067" r=".5865"/>
            <circle transform="scale(1,-1)" cx="152" cy="-32.698" r=".5865"/>
            <circle transform="scale(1,-1)" cx="12.587" cy="-39.51" r=".5865"/>
            <circle transform="scale(1,-1)" cx="13.744" cy="-33.733" r=".5865"/>
            <circle transform="scale(1,-1)" cx="22.627" cy="-41.629" r=".5865"/>
        </g>
    </g>
    <g id="stars1" fill="#f2f2f2" fill-rule="evenodd">
        <circle transform="scale(1,-1)" cx="9.35" cy="-30.327" r=".5865"/>
        <circle transform="scale(1,-1)" cx="51.959" cy="-17.331" r=".5865"/>
        <circle transform="scale(1,-1)" cx="64.753" cy="-26.243" r=".5865"/>
        <circle transform="scale(1,-1)" cx="76.452" cy="-27.089" r=".5865"/>
        <circle transform="scale(1,-1)" cx="59.091" cy="-7.8317" r=".5865"/>
        <circle transform="scale(1,-1)" cx="108.42" cy="-8.224" r=".5865"/>
        <circle transform="scale(1,-1)" cx="105.66" cy="-2.9077" r=".5865"/>
        <circle transform="scale(1,-1)" cx="88.931" cy="-7.1526" r=".5865"/>
        <circle transform="scale(1,-1)" cx="174.92" cy="-14.672" r=".5865"/>
        <circle transform="scale(1,-1)" cx="163.81" cy="-9.5068" r=".5865"/>
        <circle transform="scale(1,-1)" cx="143.96" cy="-6.8392" r=".5865"/>
        <circle transform="scale(1,-1)" cx="173.83" cy="-7.9132" r=".5865"/>
        <circle transform="scale(1,-1)" cx="111.05" cy="-39.364" r=".5865"/>
        <circle transform="scale(1,-1)" cx="105.72" cy="-33.486" r=".5865"/>
        <circle transform="scale(1,-1)" cx="107.84" cy="-24.65" r=".5865"/>
        <circle transform="scale(1,-1)" cx="122.38" cy="-21.89" r=".5865"/>
        <circle transform="scale(1,-1)" cx="128.13" cy="-30.701" r=".5865"/>
        <circle transform="scale(1,-1)" cx="143.37" cy="-40.142" r=".5865"/>
        <circle transform="scale(1,-1)" cx="152.22" cy="-26.835" r=".5865"/>
    </g>
    <g id="stars2" fill="#f2f2f2" fill-rule="evenodd">
        <circle transform="scale(1,-1)" cx="93.472" cy="-11.423" r=".5865"/>
        <circle transform="scale(1,-1)" cx="112.34" cy="-34.052" r=".5865"/>
        <circle transform="scale(1,-1)" cx="161.59" cy="-34.786" r=".5865"/>
        <circle transform="scale(1,-1)" cx="101.84" cy="-10.394" r=".5865"/>
        <circle transform="scale(1,-1)" cx="16.08" cy="-45.824" r=".5865"/>
        <circle transform="scale(1,-1)" cx="30.7" cy="-39.441" r=".5865"/>
        <circle transform="scale(1,-1)" cx="19.424" cy="-30.159" r=".5865"/>
        <circle transform="scale(1,-1)" cx="164.25" cy="-43.805" r=".5865"/>
        <circle transform="scale(1,-1)" cx="118.39" cy="-29.053" r=".5865"/>
        <circle transform="scale(1,-1)" cx="52.98" cy="-10.173" r=".5865"/>
        <circle transform="scale(1,-1)" cx="68.192" cy="-17.396" r=".5865"/>
        <circle transform="scale(1,-1)" cx="137.09" cy="-25.433" r=".5865"/>
        <circle transform="scale(1,-1)" cx="71.582" cy="-32.33" r=".5865"/>
    </g>
    <g id="stars3" fill="#f2f2f2" fill-rule="evenodd">
        <circle transform="scale(1,-1)" cx="143.68" cy="-33.397" r=".5865" fill-opacity=".49603"/>
        <circle transform="scale(1,-1)" cx="17.959" cy="-37.62" r=".5865" fill-opacity=".49603"/>
        <circle transform="scale(1,-1)" cx="2.6361" cy="-46.462" r=".5865" fill-opacity=".19783"/>
        <circle transform="scale(1,-1)" cx="50.548" cy="-38.117" r=".5865" fill-opacity=".19783"/>
        <circle transform="scale(1,-1)" cx="7.3784" cy="-9.0871" r=".5865" fill-opacity=".49603"/>
        <circle transform="scale(1,-1)" cx="17.781" cy="-16.981" r=".5865" fill-opacity=".19783"/>
        <circle transform="scale(1,-1)" cx="156.66" cy="-17.009" r=".5865" fill-opacity=".49603"/>
        <circle transform="scale(1,-1)" cx="85.712" cy="-25.843" r=".5865" fill-opacity=".49603"/>
        <circle transform="scale(1,-1)" cx="37.235" cy="-24.604" r=".5865" fill-opacity=".19783"/>
        <circle transform="scale(1,-1)" cx="178.47" cy="-37.523" r=".5865" fill-opacity=".19783"/>
        <circle transform="scale(1,-1)" cx="181.2" cy="-21.126" r=".5865" fill-opacity=".49603"/>
        <circle transform="scale(1,-1)" cx="54.04" cy="-42.947" r=".5865" fill-opacity=".19783"/>
        <circle transform="scale(1,-1)" cx="69.823" cy="-3.1844" r=".5865" fill-opacity=".19783"/>
        <circle transform="scale(1,-1)" cx="100.42" cy="-44.212" r=".5865" fill-opacity=".49603"/>
        <circle transform="scale(1,-1)" cx="126.83" cy="-12.582" r=".5865" fill-opacity=".49603"/>
    </g>
</svg>
