<?xml version="1.0" encoding="UTF-8"?>
<svg width="14.786mm" height="16.54mm" version="1.1" viewBox="0 0 14.786 16.54" xmlns="http://www.w3.org/2000/svg">
 <g transform="translate(-8.5138 -12.058)">
  <path d="m16.053 26.109c0.10353 0.41813 0.09133 0.78588-0.47387 0.91295 0.10549 0.52018-0.18391 0.87761-0.77486 0.93807z" fill="#fdfdfd" fill-rule="evenodd" stroke-width=".11586"/>
  <path d="m16.056 26.109c-1.754-0.37002-1.7646-2.0214 2.1515-6.2085l-4.048-2.5958c-4.83 3.6319-9.8047 10.901 0.65351 10.651" fill="#fff" fill-rule="evenodd" stroke="#e5e5e5" stroke-linecap="round" stroke-width=".265"/>
  <g transform="rotate(48.408 13.932 11.401)">
   <g fill-rule="evenodd">
    <path transform="scale(.26458)" d="m78.016 18.262c-4.7513 9.5944-13.392 19.751-9.0898 36.115h18.18c4.3018-16.364-4.3386-26.521-9.0898-36.115z" fill="#c83737"/>
    <path transform="scale(.26458)" d="m78.016 18.262c-0.97142 1.9616-2.1071 3.9509-3.2598 6.0078h6.5195c-1.1527-2.0569-2.2884-4.0462-3.2598-6.0078z" fill="#ac9393"/>
    <circle cx="20.611" cy="10.569" r="1.3793" fill="#4fdcff" stroke="#afafaf" stroke-linecap="round" stroke-linejoin="round" stroke-width=".43002"/>
   </g>
   <g fill="none" stroke-linecap="round" stroke-width=".265">
    <path d="m19.807 10.727c-0.11602-0.53899 0.2102-0.81084 0.57704-0.93971" stroke="#fff"/>
    <path d="m22.686 14.124c0.33125-1.5441 0.50368-3.1581-0.25964-5.1769" stroke="#871212"/>
    <path d="m20.279 6.1304 0.33855-0.63404" stroke="#fff" stroke-opacity=".62371"/>
   </g>
   <g fill-rule="evenodd">
    <g stroke-width=".24418">
     <path d="m19.794 14.797h1.7166l0.24977 0.70561h-2.216z" fill="#35353d"/>
     <path d="m18.487 14.797h1.7166l0.24977 0.70561h-2.216z" fill="#535360"/>
     <path d="m21.08 14.797h1.7166l0.24977 0.70561h-2.216z" fill="#535360"/>
    </g>
    <rect x="18.237" y="14.387" width="4.81" height=".41004" fill="#7a7a85" stroke-width=".21118"/>
    <g fill="#fc0">
     <path d="m18.677 15.503h3.9298c0.0068 0.0753-0.39278 2.3072-1.8224 2.2984-1.6621-0.01031-1.7889-0.59833-2.1073-2.2984z" stroke-width=".27653"/>
     <g stroke-width=".29242">
      <path d="m19.044 16.999h1.0128l-0.43856 1.582z"/>
      <path d="m21.195 16.735h1.0128l-0.43856 1.582z"/>
      <path d="m19.711 17.457h1.0128l-0.43856 1.582z"/>
      <path d="m20.527 17.4h1.0128l-0.43856 1.582z"/>
     </g>
    </g>
    <g fill="#ff8d00">
     <path d="m19.259 15.503h2.7656c-0.09632 0.1047-0.35818 1.3604-1.2826 1.3011-1.16-0.07433-1.1191-0.04099-1.4831-1.3011z" stroke-width=".17455"/>
     <g stroke-width=".17203">
      <path d="m19.503 16.295h0.59582l-0.258 0.93068z"/>
      <path d="m19.908 16.612h0.59582l-0.258 0.93068z"/>
      <path d="m20.678 16.664h0.59582l-0.258 0.93068z"/>
      <path d="m21.099 16.213h0.59582l-0.258 0.93068z"/>
     </g>
    </g>
   </g>
  </g>
  <path d="m11.067 21.026c0.57151 0.01023-0.33098 1.0249 0.78037 1.2337 0.03043 0.6912 0.39487 1.1369 1.5815 0.97837 0.79342 0.06785 0.98872-0.24458 1.0346-0.65203l0.9455 0.25831-1.0153 1.1349-1.0234-0.51464c-1.1739 0.48189-1.9019 0.33796-1.809-0.95809-1.5575 0.16555-1.0657-1.4908-0.49418-1.4805z" fill="#f4f4f4" fill-rule="evenodd" stroke-width=".26458"/>
  <path d="m11.116 20.987c-1.1924 0.95694-0.40634 1.7315 0.57657 1.4253v0c-0.71359 2.1412 1.5015 1.047 1.7075 0.94045v0c0.96688 1.5078 2.1432-0.39818 2.0459-0.78002" fill="none" stroke="#c8c8c8" stroke-linecap="round" stroke-opacity=".99216" stroke-width=".26458px"/>
  <path d="m14.453 22.453c1.3504 0 0.98329-0.17198 2.1009-0.57678l-0.22482 0.38935-0.86807 0.4924-1.0339-0.1017s-0.01886-0.15168 0.02591-0.20326z" fill="#f4f4f4" fill-rule="evenodd" stroke-width=".26458"/>
  <path d="m14.45 22.543c0.53651 0.50481 1.791 0.04892 2.1248-0.60777" fill="none" stroke="#c9c9c9" stroke-linecap="round" stroke-width=".26458px"/>
  <path d="m11.319 19.82c0.05689 0.96154 0.27476 1.3263 1.2082 1.3473l-0.78487 0.32363-0.6308-0.73885z" fill="#f4f4f4" fill-rule="evenodd" stroke-width=".26458"/>
  <path d="m11.285 19.903c-0.46985 1.2887 0.4099 1.9655 1.1521 1.319" fill="none" stroke="#c9c9c9" stroke-linecap="round" stroke-width=".265"/>
  <path d="m9.2977 22.708c0.25552 0.86489 0.75028 1.4099 1.6033 1.3587l-0.82035 0.33664-0.82275-0.59646z" fill="#f4f4f4" fill-rule="evenodd" stroke-width=".26458"/>
  <path d="m9.2745 22.772c-0.33239 1.4616 0.84413 1.9506 1.5445 1.342" fill="none" stroke="#c9c9c9" stroke-linecap="round" stroke-width=".26458px"/>
  <g fill="#f4f4f4">
   <path d="m11.147 27.523c0.78423 0.47548 1.7368-0.09718 1.9155-0.49607v0c0.80832 0.38931 1.5401-0.68444 1.6568-1.0469" stroke="#c9c9c9" stroke-linecap="round" stroke-linejoin="round" stroke-width=".26458px"/>
   <path d="m9.4732 26.811c0.60397 0.69016 1.729 0.20833 2.0199-0.118" stroke="#c9c9c9" stroke-linecap="round" stroke-width=".26458px"/>
   <path d="m10.089 25.202c0.86929 0.53381 1.711 0.32556 2.6985-0.29826 0.84044 0.5715 2.0179-0.05066 2.1792-0.26463-0.48919 0.5247-1.1914 1.4883-2.1222 0.74602-1.3636 0.62527-2.0431 1.0471-2.7555-0.18314z" fill-rule="evenodd" stroke-width=".26458"/>
  </g>
  <path d="m10.089 25.202c0.53201 1.6033 2.469 0.51205 2.7409 0.16397v0c0.97754 0.86333 1.9225-0.3883 2.1368-0.72685" fill="none" stroke="#c9c9c9" stroke-linecap="round" stroke-width=".26458px"/>
  <g fill="#fdfdfd" fill-rule="evenodd">
   <circle cx="16.924" cy="26.546" r=".32854"/>
   <circle cx="17.592" cy="27.039" r=".16752"/>
   <circle cx="17.766" cy="26.146" r=".16752"/>
   <circle cx="17.933" cy="27.756" r=".16752"/>
   <circle cx="17.039" cy="28.43" r=".16752"/>
   <circle cx="15.774" cy="28.239" r=".20598"/>
   <circle cx="17.265" cy="27.631" r=".2633"/>
   <circle cx="16.332" cy="27.486" r=".43025"/>
  </g>
 </g>
</svg>
