<svg width="69" height="47" viewBox="0 0 69 47" fill="none" xmlns="http://www.w3.org/2000/svg">
<path d="M33.0267 38.2208C31.8937 38.1406 30.7507 37.9902 29.5877 37.7696C27.813 37.4287 26.2789 36.9374 25.0156 36.3058C24.434 36.025 24.043 35.6741 23.8224 35.2329C23.5918 34.7717 23.5116 34.3105 23.5718 33.8192C23.6319 33.3078 23.8124 32.8667 24.1232 32.4656C24.3939 32.1047 24.7449 31.864 25.2061 31.7437C25.3364 31.7036 25.4768 31.6836 25.6272 31.6836C25.9681 31.6836 26.3591 31.7838 26.7401 31.9543C27.9132 32.5458 29.2568 32.987 30.7407 33.2878C32.1845 33.5786 33.5682 33.7189 34.8616 33.7189C36.9972 33.7189 38.5012 33.4181 39.4437 32.7865C40.7672 31.9142 41.0479 30.8213 41.0479 30.0593C41.0479 29.0767 40.6368 28.2445 39.8447 27.6429C39.183 27.1416 38.1202 26.7405 36.5962 26.4197L31.5027 25.3268C26.4694 24.2439 24.0129 21.7273 24.0129 17.6365C24.0129 15.8317 24.4842 14.2976 25.4567 12.9541C26.4393 11.6005 27.823 10.5277 29.5877 9.78571C30.4399 9.42476 31.3724 9.15404 32.365 8.96354C32.4352 7.92079 32.6257 6.09597 33.137 4.05056C33.4679 2.74712 33.869 1.56399 34.2299 0.611479C33.3977 0.611479 32.5354 0.621505 31.623 0.661611C21.8773 1.12283 12.7231 8.63267 10.5774 19.0101C10.016 21.7273 10.026 24.4444 10.5072 27.0513C12.5426 38.4915 20.6039 43.9359 28.7053 46.252C29.6077 46.5127 31.7634 46.9238 34.1397 46.9739C34.4806 47.004 34.8616 47.004 35.2526 46.994C34.8516 46.0716 34.4004 44.9085 34.0194 43.5649C33.3676 41.299 33.1069 39.2134 33.0167 38.2309L33.0267 38.2208Z" fill="#E64164"/>
<path d="M65.1916 16.8645H65.1515C64.2291 17.035 63.2365 17.2054 62.4945 16.4033C61.4217 15.2302 61.2813 14.8492 60.9805 14.0371C60.7298 13.3352 60.3589 12.3226 59.1557 10.1969C58.3135 8.70299 56.1177 7.43965 56.1177 7.43965C56.1177 7.43965 56.6992 3.8602 58.2132 0.641695C58.4137 0.210556 57.9625 0 57.1504 0C55.1952 0 51.1746 1.27336 49.4801 3.94041C49.4801 3.94041 45.9909 1.53405 38.471 0.812146C38.1001 1.64434 37.4684 3.20848 37.0172 5.02327C36.6663 6.437 36.4958 7.73042 36.4056 8.6328C37.709 8.66288 39.0325 8.81328 40.3761 9.09402C41.8199 9.40485 43.0732 9.87609 44.146 10.4977C44.7777 10.8286 45.1587 11.2497 45.3091 11.7911C45.4796 12.3827 45.4595 12.9342 45.249 13.4856C45.0484 13.997 44.7175 14.3579 44.2162 14.5986C44.0357 14.6888 43.8252 14.7289 43.5745 14.7289C43.1835 14.7289 42.7223 14.6186 42.221 14.4181C41.2785 14.007 40.2357 13.7062 39.1228 13.4957C38.0199 13.2951 36.937 13.1949 35.8942 13.1949C34.0494 13.1949 32.6457 13.5257 31.6029 14.2075C30.139 15.15 29.8382 16.3833 29.8382 17.2456C29.8382 18.188 30.2493 19.0102 31.0113 19.6018C31.6631 20.1031 32.7058 20.5142 34.1998 20.835L39.2531 21.9279C44.3766 23.0208 46.8732 25.4572 46.8732 29.3977C46.8732 31.2024 46.412 32.7164 45.4495 34.0399C44.4869 35.3634 43.1033 36.4062 41.3386 37.1481C40.0753 37.6695 38.6315 38.0104 37.0373 38.1708C37.1375 39.0933 37.3782 40.7176 37.8695 42.4521C38.3708 44.2268 39.0325 45.6807 39.4135 46.4527L40.1455 46.3424C40.3259 46.3023 40.4964 46.2722 40.6668 46.2321H40.6869C41.108 46.1419 41.5391 46.0416 41.9603 45.9313C42.0605 45.9013 42.1407 45.8812 42.1909 45.8712C47.906 44.307 53.8818 40.7978 57.6818 37.2484C58.4137 36.5666 59.5668 35.3233 61.2211 33.1275C61.4016 32.8869 60.77 32.6663 59.5166 32.2151C58.8148 31.9644 57.9325 31.6536 56.8797 31.2225C56.3984 31.032 56.6892 30.4304 56.9799 30.5307C59.7372 31.4431 62.4043 31.5132 62.6449 31.2726C63.5172 30.4103 64.6903 29.6784 65.703 29.2773C67.1267 28.7159 67.1969 26.5 67.2771 23.7026C67.3072 22.5796 67.3473 21.3564 67.4777 20.1232C67.8587 16.3632 66.6154 16.5938 65.1615 16.8545L65.1916 16.8645ZM57.0702 20.3838C56.0675 20.3838 55.2454 19.5717 55.2454 18.559C55.2454 17.5464 56.0575 16.7342 57.0702 16.7342C58.0828 16.7342 58.895 17.5464 58.895 18.559C58.895 19.5717 58.0828 20.3838 57.0702 20.3838Z" fill="#E64164"/>
<path d="M8.09092 18.559C7.9706 16.9849 6.61702 15.7516 5.01279 15.7516C3.9199 15.7516 2.94733 16.3031 2.41593 17.2355C1.89455 18.1479 1.90457 19.2408 2.446 20.1733C2.5964 20.434 2.83704 20.7548 3.19799 21.0656C2.66659 21.2261 2.04495 21.3664 1.35312 21.4667C0.801661 21.5469 0.430681 22.0583 0.510893 22.6097C0.591105 23.111 1.01222 23.462 1.50352 23.462C1.55365 23.462 1.60378 23.462 1.65391 23.452C3.30828 23.2013 4.59167 22.7802 5.56424 22.2588C6.44657 22.4994 7.46927 22.5897 8.8429 22.5997C8.8429 22.5997 8.82285 22.4292 8.86296 21.6873C8.90306 20.9453 8.95319 20.6546 8.95319 20.6546C8.42179 20.6546 7.95055 20.6345 7.52943 20.5844C7.98063 19.9126 8.15108 19.2007 8.10094 18.549L8.09092 18.559ZM5.32361 20.063C4.59167 19.7321 4.29088 19.3511 4.19061 19.1706C3.93995 18.7495 4.0703 18.3986 4.16053 18.2382C4.33098 17.9374 4.65183 17.7669 5.02281 17.7669C5.5843 17.7669 6.05554 18.188 6.09565 18.7194C6.12573 19.1506 5.88509 19.6319 5.32361 20.073V20.063Z" fill="#E64164"/>
</svg>
