<?xml version="1.0" encoding="UTF-8"?>
<svg id="embs" enable-background="new 0 0 190 40" version="1.1" viewBox="0 0 190 40" xml:space="preserve" xmlns="http://www.w3.org/2000/svg"><g clip-rule="evenodd" fill="#fff" fill-rule="evenodd">
<path d="m21.33 10.67v16 5.33l5.33-5.33v-21.33l-5.33 5.33z"/>
<path d="m29.33 2.67v37.33l2.67-2.67v-37.33l-2.67 2.67z"/>
<path d="m34.67 10.67v21.33l5.33-5.33v-5.33h10.67l5.33-5.34h-16v-10.67l-5.33 5.34z"/>
<path d="m16 2.67v13.33h-10.67l-5.33 5.33h16v18.67l2.67-2.67v-37.33l-2.67 2.67z"/>
</g><path d="m162.51 25.19c0.93 0.52 1.88 1 2.84 1.42s1.95 0.78 2.98 1.07 2.11 0.51 3.25 0.66c1.13 0.16 2.34 0.23 3.62 0.23 1.54 0 2.86-0.1 3.94-0.3 1.09-0.2 1.97-0.48 2.65-0.84s1.18-0.78 1.5-1.27c0.31-0.49 0.46-1.03 0.46-1.61 0-0.93-0.39-1.66-1.17-2.21-0.77-0.54-1.97-0.81-3.59-0.81-0.71 0-1.46 0.05-2.25 0.14-0.78 0.1-1.58 0.2-2.39 0.3-0.8 0.11-1.6 0.21-2.38 0.31-0.78 0.09-1.52 0.14-2.21 0.14-1.15 0-2.25-0.15-3.31-0.45-1.06-0.29-2-0.73-2.81-1.33-0.82-0.59-1.46-1.33-1.95-2.21-0.48-0.89-0.72-1.92-0.72-3.11 0-0.7 0.1-1.4 0.29-2.09s0.5-1.35 0.92-1.98 0.97-1.22 1.64-1.76 1.47-1.01 2.42-1.4 2.04-0.71 3.29-0.93c1.24-0.22 2.66-0.34 4.24-0.34 1.15 0 2.3 0.07 3.46 0.19s2.29 0.3 3.39 0.53 2.16 0.5 3.18 0.83 1.97 0.68 2.84 1.08l-2.28 4.2c-0.72-0.32-1.5-0.61-2.33-0.88-0.84-0.27-1.7-0.5-2.61-0.69-0.91-0.2-1.85-0.35-2.82-0.47-0.96-0.11-1.96-0.17-2.96-0.17-1.44 0-2.62 0.11-3.54 0.31-0.92 0.21-1.66 0.48-2.21 0.8-0.54 0.32-0.93 0.68-1.14 1.09-0.21 0.4-0.32 0.8-0.32 1.19 0 0.77 0.34 1.4 1.03 1.88 0.69 0.49 1.74 0.73 3.16 0.73 0.57 0 1.22-0.04 1.96-0.12s1.51-0.17 2.33-0.27c0.81-0.1 1.65-0.19 2.49-0.27 0.85-0.08 1.67-0.12 2.47-0.12 1.51 0 2.85 0.17 4.01 0.51 1.17 0.34 2.15 0.82 2.93 1.45 0.79 0.63 1.38 1.39 1.79 2.29 0.4 0.89 0.61 1.89 0.61 2.99 0 1.48-0.34 2.8-1.03 3.95-0.68 1.15-1.66 2.13-2.93 2.92-1.26 0.8-2.79 1.4-4.57 1.81s-3.77 0.61-5.96 0.61c-1.45 0-2.86-0.09-4.24-0.27s-2.7-0.44-3.96-0.77c-1.27-0.33-2.47-0.73-3.62-1.19-1.14-0.47-2.2-0.98-3.18-1.54l2.79-4.23zm-16.24 3.1c1.4 0 2.47-0.3 3.2-0.9 0.72-0.6 1.09-1.45 1.09-2.54s-0.36-1.95-1.09-2.56-1.79-0.92-3.2-0.92h-10.61v6.93h10.61zm-0.1-11.28c0.45 0 0.89 0.02 1.32 0.04 0.73-0.7 1.1-1.5 1.1-2.39 0-0.93-0.36-1.65-1.09-2.16-0.73-0.5-1.79-0.76-3.2-0.76h-8.64v5.27h10.51zm-15.72-9.86h13.72c1.68 0 3.13 0.18 4.37 0.53 1.24 0.36 2.28 0.85 3.1 1.47 0.82 0.63 1.43 1.37 1.83 2.23s0.6 1.79 0.6 2.79c0 1.63-0.51 3.06-1.54 4.28 1.18 0.7 2.06 1.61 2.65 2.73 0.58 1.12 0.87 2.39 0.87 3.81 0 1.19-0.2 2.27-0.6 3.23s-1.01 1.79-1.82 2.47c-0.82 0.68-1.84 1.21-3.09 1.58-1.24 0.36-2.71 0.55-4.39 0.55h-15.69v-25.67zm-36.37 0h5.21l9.33 9.36 9.33-9.36h5.21v25.67h-5.21v-18.46l-9.33 8.99-9.33-8.99v18.46h-5.21v-25.67zm-28.01 0h21.86v4.56h-16.65v5.12h14.75v4.29h-14.75v7.14h17v4.55h-22.21v-25.66z" fill="#fff"/>
</svg>
