<?xml version="1.0" encoding="UTF-8"?>
<svg width="41.095mm" height="15.139mm" version="1.1" viewBox="0 0 41.095 15.139" xmlns="http://www.w3.org/2000/svg">
 <g transform="translate(-76.449 -137.93)">
  <path d="m85.646 142.48h-9.114v-1.5189h9.114zm0 3.0377h-9.114v-1.5189h9.114zm0 3.0379h-9.114v-1.519h9.114zm31.898-6.0756h-9.1135v-1.5189h9.1135zm0 3.0377h-9.1135v-1.5189h9.1135zm0 3.0379h-9.1135v-1.519h9.1135" fill="#fff"/>
  <path d="m88.684 148.56h-1.519v-7.5946h9.1142v7.5946h-1.519v-6.0756h-6.0763zm18.228 0h-9.1142v-10.632h1.519v3.0379h7.5953v1.5189h-7.5953v4.5567h7.5953" fill="#fff"/>
  <text transform="scale(1.0781 .92757)" x="70.870544" y="164.12021" fill="#ffffff" font-family="Titillium-Light" font-size="3.7349px" font-weight="300" stroke-width=".15709" xml:space="preserve"><tspan x="70.870544 74.467293 78.064034 81.657036 83.177162 85.817741 88.56292 90.613396 93.250252 94.766632 97.134598 99.857346 103.73421 105.25807 107.96214" y="164.12021" stroke-width=".15709">www.ente.com.pl</tspan></text>
 </g>
</svg>
