<?xml version="1.0" encoding="UTF-8"?>
<svg width="253.34" height="403.64" version="1.1" viewBox="0 0 253.34 403.64" xmlns="http://www.w3.org/2000/svg">
 <defs>
  <clipPath id="clipPath1500">
   <path d="M 0,595.276 H 841.89 V 0 H 0 Z"/>
  </clipPath>
 </defs>
 <g transform="matrix(1.3333 0 0 -1.3333 -204.47 664.55)">
  <g transform="translate(-162.79 14.251)">
   <g clip-path="url(#clipPath1500)">
    <g transform="translate(496.98 259.46)">
     <path d="m0 0h-169.06c-3.707 0-7.047 2.232-8.466 5.656-1.417 3.424-0.635 7.366 1.986 9.988l134.01 134.01-24.878 24.877-96.176-96.177c-2.621-2.621-6.562-3.404-9.987-1.987-3.424 1.418-5.657 4.76-5.657 8.466v64.711c0 5.06 4.103 9.163 9.165 9.163 5.061 0 9.164-4.103 9.164-9.164v-42.587l87.012 87.013c3.578 3.577 9.38 3.577 12.959 0l37.836-37.836c3.576-3.578 3.576-9.38 0-12.958l-124.85-124.85h137.78v37.837h-56.742c-5.062 0-9.162 4.103-9.162 9.164 0 5.06 4.1 9.163 9.162 9.163h65.905c5.061 0 9.163-4.103 9.163-9.163v-56.162c0-5.061-4.102-9.164-9.163-9.164" fill="#fff"/>
    </g>
    <g transform="translate(327.92 429.11)">
     <path d="m0 0c-5.062 0-9.164 4.103-9.164 9.163v36.724c0 5.061 4.102 9.164 9.164 9.164s9.164-4.103 9.164-9.164v-36.724c0-5.06-4.102-9.163-9.164-9.163" fill="#3ad531"/>
    </g>
    <g transform="translate(318.8 246.12)">
     <path d="m0 0h4.319v-8.637l4.487 1.826v-3.653c-0.223-0.113-0.466-0.215-0.732-0.315-0.264-0.1-0.572-0.217-0.914-0.35-0.345-0.133-0.742-0.293-1.196-0.479-0.453-0.19-1.002-0.418-1.645-0.684v-7.309h11.297v-3.654h-15.616v9.136l-2.657-0.997v3.655l2.657 0.997z" fill="#fff"/>
    </g>
    <g transform="translate(348.7 239.81)">
     <path d="m0 0h4.152v-16.943h-2.824l-0.498 1.993h-0.334c-0.266-0.444-0.586-0.831-0.963-1.163-0.352-0.311-0.762-0.58-1.228-0.814-0.465-0.231-1.007-0.35-1.627-0.35h-2.99c-0.71 0-1.356 0.119-1.943 0.35-0.588 0.234-1.098 0.554-1.529 0.965-0.433 0.408-0.764 0.885-0.997 1.428-0.233 0.54-0.347 1.123-0.347 1.743v12.791h4.151v-12.127c0-0.51 0.161-0.912 0.482-1.212 0.32-0.297 0.769-0.448 1.345-0.448h2.494c0.463 0 0.86 0.092 1.194 0.284 0.332 0.188 0.609 0.402 0.829 0.646 0.245 0.266 0.456 0.565 0.633 0.895z" fill="#fff"/>
    </g>
    <g transform="translate(365.08 233.33)">
     <path d="m0 0 3.156 6.477h4.152v-1.662l-3.821-6.478 4.155-7.143v-1.661h-4.155l-3.487 6.977h-3.157v-6.977h-4.154v23.255h4.154v-12.788z" fill="#fff"/>
    </g>
    <g transform="translate(383.78 226.02)">
     <path d="m0 0c0.464 0 0.863 0.092 1.196 0.284 0.332 0.188 0.607 0.403 0.828 0.646 0.246 0.266 0.455 0.565 0.633 0.895v1.995h-4.983c-0.51 0-0.914-0.149-1.214-0.448-0.3-0.298-0.446-0.702-0.446-1.213v-0.499c0-0.51 0.146-0.912 0.446-1.212 0.3-0.297 0.704-0.448 1.214-0.448zm6.809-3.156h-2.825l-0.498 1.993h-0.333c-0.264-0.443-0.587-0.831-0.963-1.163-0.353-0.311-0.762-0.58-1.227-0.814-0.467-0.231-1.009-0.35-1.628-0.35h-2.658c-0.709 0-1.358 0.119-1.945 0.35-0.585 0.234-1.095 0.554-1.528 0.965-0.432 0.408-0.764 0.885-0.997 1.428-0.233 0.54-0.347 1.123-0.347 1.743v1.828c0 0.62 0.114 1.201 0.347 1.745 0.233 0.541 0.565 1.018 0.997 1.427 0.433 0.41 0.943 0.733 1.528 0.964 0.587 0.233 1.236 0.351 1.945 0.351h5.98v1.161c0 1.217-0.609 1.825-1.827 1.825h-7.476v3.49h8.637c0.709 0 1.358-0.115 1.945-0.349 0.586-0.232 1.095-0.554 1.527-0.962 0.434-0.409 0.765-0.887 0.998-1.429 0.231-0.543 0.348-1.126 0.348-1.745z" fill="#fff"/>
    </g>
    <g transform="translate(404.88 227.85)">
     <path d="m0 0c0 0.866-0.445 1.362-1.329 1.496l-4.651 0.831c-0.489 0.089-0.963 0.26-1.429 0.516-0.466 0.255-0.875 0.58-1.229 0.979-0.354 0.398-0.637 0.851-0.849 1.363-0.208 0.508-0.314 1.051-0.314 1.627v0.665c0 0.619 0.116 1.202 0.349 1.745 0.231 0.542 0.564 1.02 0.997 1.428 0.431 0.409 0.941 0.731 1.528 0.963 0.586 0.234 1.234 0.349 1.942 0.349h8.471v-2.491l-0.995-0.999h-6.477c-0.511 0-0.915-0.138-1.214-0.412-0.298-0.278-0.448-0.583-0.448-0.915 0-0.489 0.092-0.865 0.284-1.131 0.186-0.266 0.533-0.442 1.045-0.529l4.815-0.833c0.997-0.176 1.857-0.646 2.578-1.41 0.717-0.763 1.078-1.733 1.078-2.908v-0.83c0-0.619-0.117-1.202-0.348-1.744-0.234-0.543-0.566-1.021-0.996-1.429-0.434-0.409-0.943-0.729-1.53-0.963-0.587-0.233-1.235-0.349-1.943-0.349h-9.302v3.486h8.472c0.995 0 1.495 0.5 1.495 1.495" fill="#fff"/>
    </g>
    <path d="m417.27 222.87h-4.152v16.943h4.152zm0 19.103h-4.152v4.651h4.152z" fill="#fff"/>
    <g transform="translate(425.91 234.99)">
     <path d="m0 0v-1.827h6.645v1.827c0 0.511-0.164 0.915-0.484 1.214-0.32 0.298-0.77 0.447-1.346 0.447h-2.99c-0.575 0-1.023-0.149-1.344-0.447-0.322-0.299-0.481-0.703-0.481-1.214m10.797 0.665v-5.98h-10.797v-1.662c0-0.51 0.159-0.913 0.481-1.212 0.321-0.299 0.769-0.451 1.344-0.451h8.306v-3.486h-9.468c-0.709 0-1.356 0.116-1.941 0.35-0.589 0.233-1.098 0.553-1.529 0.963-0.433 0.408-0.765 0.885-0.999 1.428-0.233 0.542-0.346 1.125-0.346 1.744v8.306c0 0.62 0.113 1.201 0.346 1.745 0.234 0.541 0.566 1.018 0.999 1.428 0.431 0.409 0.94 0.731 1.529 0.963 0.585 0.233 1.232 0.348 1.941 0.348h5.316c0.709 0 1.357-0.115 1.944-0.348 0.586-0.232 1.096-0.554 1.528-0.963 0.432-0.41 0.764-0.887 0.997-1.428 0.232-0.544 0.349-1.125 0.349-1.745" fill="#fff"/>
    </g>
    <g transform="translate(451.49 232.67)">
     <path d="m0 0h-0.332l-2.99-9.801h-4.319l-4.153 15.282v1.662h4.485l2.16-11.794h0.332l2.658 9.468h3.986l2.658-9.468h0.332l2.16 11.794h4.483v-1.662l-4.151-15.282h-4.321z" fill="#fff"/>
    </g>
    <path d="m471.09 222.87h-4.153v16.943h4.153zm0 19.103h-4.153v4.651h4.153z" fill="#fff"/>
    <g transform="translate(479.53 234.66)">
     <path d="m0 0v-6.645c0-0.51 0.16-0.913 0.48-1.212 0.321-0.299 0.769-0.451 1.346-0.451h7.642v-3.486h-8.805c-0.709 0-1.357 0.116-1.944 0.35-0.586 0.233-1.096 0.553-1.529 0.963-0.429 0.408-0.763 0.885-0.995 1.428-0.233 0.542-0.35 1.125-0.35 1.744v7.973c0 0.619 0.117 1.202 0.35 1.745 0.232 0.542 0.566 1.021 0.995 1.429 0.433 0.408 0.943 0.73 1.529 0.963 0.587 0.233 1.235 0.348 1.944 0.348h8.805v-2.491l-0.997-0.999h-6.645c-0.577 0-1.025-0.145-1.346-0.445-0.32-0.299-0.48-0.704-0.48-1.214" fill="#fff"/>
    </g>
    <g transform="translate(506.1 226.35)">
     <path d="m0 0v-3.486h-13.952v3.486l8.472 9.637v0.33h-7.145l-0.996 0.999v2.491h13.621v-3.49l-8.472-9.633v-0.334z" fill="#fff"/>
    </g>
    <path d="m321.39 181.43h-2.458v22.927h2.458z" fill="#fff"/>
    <g transform="translate(338.26 184.54)">
     <path d="m0 0-6.717 16.047h-0.161l-2.294-19.159h-2.456v0.984l2.944 21.942h2.95l6.878-16.54h0.164l6.879 16.54h2.946l2.947-21.942v-0.984h-2.456l-2.292 19.159h-0.164l-6.712-16.047z" fill="#fff"/>
    </g>
    <g transform="translate(371 181.43)">
     <path d="m0 0-11.131 18.834h-0.164l0.326-4.259v-14.575h-2.456v22.927h2.621l11.131-18.832h0.163l-0.327 4.259v14.573h2.458v-22.927z" fill="#fff"/>
    </g>
   </g>
  </g>
 </g>
</svg>
