<?xml version="1.0" encoding="UTF-8"?>
<svg width="265.97" height="354.74" version="1.1" viewBox="0 0 265.97 354.74" xmlns="http://www.w3.org/2000/svg">
 <path d="m246.61 118.73h-22.633c0 24.928-8.813 46.258-26.493 63.937-17.679 17.678-39.008 26.493-63.936 26.493-24.929 0-46.258-8.8141-63.937-26.493-17.68-17.679-26.492-39.01-26.492-63.937 0-24.823 8.6567-46.049 25.972-63.624 17.314-17.574 38.226-26.335 62.789-26.335v-22.634c-30.874 0-57.157 10.951-78.852 32.908-21.695 21.955-32.541 48.499-32.541 79.686 0 31.29 11.004 57.938 33.064 79.999 22.06 22.058 48.708 33.064 79.999 33.064 31.29 0 57.938-11.005 79.998-33.064 22.061-22.061 33.064-48.709 33.064-79.999zm0-113.06h-79.894l31.915 31.969-73.114 73.062 15.958 15.959 73.168-73.01 31.968 31.968z" fill="#e30016" fill-rule="evenodd"/>
 <g fill="#fff">
  <path d="m246.61 118.73h-22.633c0 24.928-8.813 46.258-26.493 63.937-17.679 17.678-39.008 26.493-63.936 26.493-24.929 0-46.258-8.8141-63.937-26.493-17.68-17.679-26.492-39.01-26.492-63.937 0-24.823 8.6567-46.049 25.972-63.624 17.314-17.574 38.226-26.335 62.789-26.335v-22.634c-30.874 0-57.157 10.951-78.852 32.908-21.695 21.955-32.541 48.499-32.541 79.686 0 31.29 11.004 57.938 33.064 79.999 22.06 22.058 48.708 33.064 79.999 33.064 31.29 0 57.938-11.005 79.998-33.064 22.061-22.061 33.064-48.709 33.064-79.999zm0-113.06h-79.894l31.915 31.969-73.114 73.062 15.958 15.959 73.168-73.01 31.968 31.968z" stroke="#fff" stroke-width="11.339"/>
  <path d="m71.586 275.51h-61.653v6.8505h61.838c0.6942-0.4167 1.2033-0.8949 1.5429-1.4505 0.324-0.54 0.4935-1.1415 0.4935-1.7895 0-1.296-0.7404-2.4996-2.2215-3.6105zm-27.401 16.478h-34.252v18.052h-9.2571v-44.897h76.094c4.2582 0 6.3873 3.0549 6.3873 9.1647v7.4982c0 3.3789-0.5244 5.9247-1.5891 7.6218-1.0644 1.7127-2.6691 2.5611-4.7982 2.5611h-16.756zm129.97 18.052h-82.297v-44.712h82.297v10.183h-72.947v6.8505h72.947v9.6273h-72.947v6.8505h72.947zm91.091 0h-75.261c-2.3604 0-4.1349-0.9102-5.3382-2.7153-1.188-1.8051-1.7898-4.5051-1.7898-8.1156v-24.439c0-3.1014 0.6018-5.4309 1.7898-7.0047 1.2033-1.5582 2.9778-2.3451 5.3382-2.3451h75.261v10.275h-71.281c-0.4167 0.7407-0.756 1.4505-1.0182 2.1447-0.2625 0.6789-0.4167 1.3269-0.4629 1.9287v16.108l0.9255 2.7771h71.836z" fill-rule="evenodd"/>
  <g stroke="#1b1918" stroke-width="1.4173">
   <path d="m71.619 275.54h-61.654v6.8508h61.838c1.3896-0.834 2.0364-1.944 2.0364-3.24s-0.7404-2.4996-2.2212-3.6108zm-27.402 16.478h-34.252v18.052h-9.2568v-44.898h76.094c4.2588 0 6.3876 3.0552 6.3876 9.1644v7.4988c0 6.7572-2.1288 10.183-6.3876 10.183h-16.756z"/>
   <path d="m174.18 310.07h-82.297v-44.713h82.297v10.183h-72.947v6.8508h72.947v9.6276h-72.947v6.8507h72.947z"/>
   <path d="m265.26 310.07h-75.262c-4.7209 0-7.128-3.6107-7.128-10.831v-24.439c0-6.2028 2.4071-9.3492 7.128-9.3492h75.262v10.276h-71.281c-0.8329 1.4809-1.3884 2.8693-1.4809 4.0729v16.108l0.9264 2.7768h71.836z"/>
  </g>
  <path d="m17.139 344.57v-5.1851h28.467v9.201c0 2.0081-0.3218 3.5076-0.9573 4.5074-0.6437 0.9912-1.6098 1.4913-2.9061 1.4913h-37.77c-1.1949 0-2.0929-0.5001-2.7029-1.4913-0.6015-0.9998-0.9065-2.4993-0.9065-4.5074v-13.471c0-1.7286 0.305-3.0249 0.9065-3.8889 0.61-0.8642 1.508-1.2962 2.7029-1.2962h41.633v5.5916h-38.583c-0.9147 0.051-1.3722 0.7625-1.3722 2.135v9.557c0.4065 1.0165 0.864 1.5248 1.3722 1.5248h32.026l1.3725-1.5248v-2.6436zm78.386 10.015h-45.192v-24.553h5.1344l0.0507 9.3028-0.0507 9.2009h40.057zm9.862-15.301v15.301h-5.1341v-24.502l5.1341-0.0511zm29.89-9.3027-5.1344-0.0507-0.0507 18.961h-13.319c-0.2288-0.0507-0.4575-0.2203-0.6778-0.4998-0.2287-0.2794-0.4405-0.6692-0.6437-1.1775v-17.284h-5.2869v18.656c0 2.0081 0.305 3.5076 0.9065 4.5074 0.61 0.9912 1.508 1.4913 2.7028 1.4913h37.77c1.2963 0 2.2623-0.5001 2.9061-1.4913 0.6355-0.9998 0.9572-2.4993 0.9572-4.5074v-18.656h-5.1848v17.284l-1.4236 1.6773h-13.522zm29.89 9.3027v15.301h-5.1341v-24.502l5.1341-0.0511zm50.021 15.301h-41.328c-1.2963 0-2.2708-0.5001-2.9316-1.4913-0.6522-0.9913-0.9827-2.4738-0.9827-4.4564v-13.42c0-1.7028 0.3305-2.9824 0.9827-3.8464 0.6608-0.8557 1.6353-1.2877 2.9316-1.2877h41.328v5.6423h-39.142c-0.2287 0.4068-0.4153 0.7966-0.5593 1.1778-0.144 0.3728-0.2287 0.7285-0.2539 1.059v8.8453l0.5082 1.525h39.447zm49.919 0h-45.192v-24.553h45.192v5.5919h-40.057v3.7616h40.057v5.2869h-40.057v3.7616h40.057z" fill-rule="evenodd"/>
  <g stroke="#3b3b3b" stroke-width=".216">
   <path d="m17.123 344.62v-5.1854h28.468v9.2018c0 4.015-1.2708 5.9987-3.8642 5.9987h-37.768c-2.3893 0-3.6096-1.9837-3.6096-5.9987v-13.471c0-3.4571 1.2203-5.1851 3.6096-5.1851h41.633v5.5919h-38.584c-0.9141 0.0505-1.3728 0.762-1.3728 2.1348v9.557c0.4082 1.0162 0.8654 1.525 1.3728 1.525h32.027l1.3717-1.525v-2.6436z"/>
   <path d="m95.511 354.63h-45.192v-24.553h5.135l0.0502 9.3024-0.0502 9.2004h40.057z"/>
   <path d="m105.39 339.33v15.301h-5.1335v-24.503l5.1335-0.0504z"/>
   <path d="m135.26 330.03-5.135-0.0505-0.0504 18.961h-13.319c-0.4573-0.1009-0.9145-0.6613-1.3227-1.6775v-17.284h-5.2857v18.656c0 4.015 1.2203 5.9987 3.6096 5.9987h37.768c2.5934 0 3.8642-1.9837 3.8642-5.9987v-18.656h-5.1851v17.284l-1.4233 1.6775h-13.522z"/>
   <path d="m165.15 339.33v15.301h-5.1335v-24.503l5.1335-0.0504z"/>
   <path d="m215.15 354.63h-41.328c-2.592 0-3.9143-1.9837-3.9143-5.9485v-13.42c0-3.4056 1.3223-5.1347 3.9143-5.1347h41.328v5.6424h-39.142c-0.4584 0.8135-0.7631 1.5766-0.8147 2.2368v8.8452l0.5085 1.5251h39.448z"/>
   <path d="m265.07 354.63h-45.192v-24.553h45.192v5.5919h-40.057v3.7607h40.057v5.2872h-40.057v3.7621h40.057z"/>
  </g>
 </g>
</svg>
