<?xml version="1.0" encoding="UTF-8"?>
<svg width="132.3mm" height="155.82mm" version="1.1" viewBox="0 0 132.3 155.82" xmlns="http://www.w3.org/2000/svg">
 <defs>
  <clipPath id="clipPath14644">
   <path d="m82.008 110.3 6.2327-6.2327 6.2327 6.2327-6.2327 6.2327z" fill="#fff"/>
  </clipPath>
 </defs>
 <g transform="translate(-50.965 -62.289)">
  <g transform="translate(28.854,17.088)">
   <g clip-path="url(#clipPath14644)" fill="#fff">
    <g transform="matrix(.83391 0 0 -.83391 -404.78 312.41)" fill="#fff">
     <path d="m0 0h841.89v595.28h-841.89z" fill="#fff"/>
    </g>
   </g>
   <path d="m63.14 190.91c-0.83058 0.0325-1.6453-0.23766-2.2933-0.75886-0.63628-0.54621-1.1174-1.2509-1.3926-2.0431-0.35608-0.96484-0.58874-1.9705-0.69215-2.9938-0.26685-2.5309-0.26685-5.0827 0-7.6136 0.10507-1.0174 0.33773-2.0181 0.69215-2.9771 0.28353-0.78055 0.76303-1.476 1.3926-2.0181 0.65045-0.51536 1.4635-0.78138 2.2933-0.75052 0.8581-0.0375 1.7037 0.22182 2.3933 0.73384 0.65962 0.53537 1.1583 1.2425 1.4427 2.0431 0.36358 0.96317 0.60125 1.9697 0.70882 2.9938 0.26685 2.5393 0.26685 5.0994 0 7.6386-0.10924 1.024-0.34774 2.0297-0.70882 2.9937-0.28937 0.80389-0.79805 1.5119-1.4677 2.0431-0.68548 0.50201-1.5194 0.76052-2.3683 0.73384m-8.4809-9.59c-0.01084 1.6512 0.12008 3.2998 0.39194 4.9284 0.23433 1.3751 0.69381 2.7019 1.3593 3.9277 0.61876 1.1199 1.5327 2.0489 2.6435 2.6852 1.2792 0.68881 2.7177 1.0249 4.1696 0.97568 1.4518 0.055 2.892-0.28186 4.1696-0.97568 1.1008-0.64628 2.0097-1.5728 2.6352-2.6852 0.68464-1.2192 1.1533-2.5484 1.3843-3.9277 0.5337-3.2639 0.5337-6.5929 0-9.8568-0.23516-1.3718-0.69965-2.6944-1.376-3.911-0.61543-1.1199-1.5277-2.0481-2.6352-2.6852-1.2784-0.68964-2.7169-1.029-4.1696-0.98401-1.4527-0.0525-2.8928 0.2877-4.1696 0.98401-1.0991 0.64462-2.0064 1.5719-2.6268 2.6852-0.68714 1.2183-1.1558 2.5476-1.3843 3.9277-0.27269 1.6286-0.40361 3.2773-0.39194 4.9284m-11.992 11.858h3.7276v-15.052c-0.01751-0.85726 0.14176-1.7087 0.46699-2.5017 0.28353-0.67463 0.70049-1.2842 1.2258-1.7929 0.45782-0.44781 0.99903-0.80222 1.5928-1.0424 0.50785-0.21181 1.0507-0.32522 1.6011-0.33356 0.58124-4e-3 1.1608 0.04 1.7345 0.13343 0.08756 0.0225 0.17679 0.0367 0.26685 0.0417v-3.6442c-0.53037-0.20848-1.0991-0.30021-1.6678-0.26685-1.1108-0.0359-2.1924 0.36525-3.0104 1.1174-0.89812 0.87644-1.6228 1.9147-2.1348 3.0604h-0.09173v-3.5191h-3.7109zm-20.556 7.8054h3.7276v-10.516h0.08339c0.84559 2.0172 2.817 3.3315 5.0035 3.3356 1.3434 0.0409 2.6602-0.3836 3.7276-1.2008 1.0349-0.83725 1.8555-1.9097 2.3933-3.1272 0.60625-1.3276 1.0324-2.7294 1.2675-4.1696 0.25017-1.4794 0.37609-2.9779 0.37526-4.4781 0-3.7584-0.6196-6.7105-1.8596-8.8561-1.1883-2.1165-3.4816-3.3665-5.9041-3.2189-1.1992-0.0217-2.3716 0.35358-3.3356 1.0674-0.88311 0.59791-1.5336 1.481-1.8429 2.5017h-0.09173v-2.9437h-3.5441zm3.5108-19.705c-0.0083-1.2976 0.05004-2.5943 0.17512-3.886 0.08923-0.99069 0.32272-1.9622 0.69215-2.8853 0.59625-1.6286 2.1965-2.6685 3.9277-2.5518 1.5136-0.0767 2.8962 0.85393 3.394 2.2849 0.73134 2.1073 1.0566 4.3347 0.959 6.5629 0 3.2798-0.31939 5.729-0.959 7.3468-0.45281 1.4819-1.8454 2.4742-3.394 2.4183-0.85893 0.0292-1.7003-0.24517-2.3766-0.77554-0.66129-0.55288-1.1725-1.2642-1.4844-2.0681-0.37693-0.93731-0.62377-1.9222-0.73384-2.927-0.1376-1.1792-0.20431-2.3658-0.20014-3.5525" fill="#f36219"/>
   <path d="m146.51 169.42h-3.4607v2.9354h3.4607v16.42c-0.10757 1.2776 0.25768 2.5509 1.0257 3.5775 0.67547 0.75052 1.9347 1.1341 3.7693 1.1341 1.0124 8.4e-4 2.0222-0.0884 3.0188-0.26685v-3.0688l-0.26685 0.0417c-0.45615 0.0609-0.91563 0.0917-1.376 0.0917-0.70049 0.0817-1.4035-0.13676-1.9347-0.60042-0.39527-0.61042-0.57456-1.3359-0.50868-2.0598v-15.269h4.1696v-2.9354h-4.1696v-6.9215h-3.7276zm-21.682 23.8h3.7359v-16.428c-0.10257-1.3601 0.4378-2.6902 1.4594-3.5942 0.90396-0.77304 2.0539-1.1992 3.2439-1.2008 0.6738-0.035 1.3434 0.12759 1.9263 0.46699 0.46282 0.27936 0.83391 0.68797 1.0674 1.1758 0.22432 0.46116 0.36608 0.95733 0.41695 1.4677 0.0667 0.55372 0.0976 1.1108 0.0917 1.6678v16.428h3.7359v-16.853c5e-3 -0.89146-0.0425-1.7829-0.14177-2.6685-0.0909-0.79889-0.33106-1.5744-0.70882-2.2849-0.42447-0.79889-1.0816-1.4502-1.8846-1.868-1.0958-0.53537-2.3091-0.78721-3.5274-0.73384-1.2083 0-2.3958 0.31605-3.4441 0.9173-1.0282 0.55789-1.8454 1.436-2.3266 2.5017h-0.0917v-2.7936h-3.5525zm-8.8395-27.444h3.7276v-4.2613h-3.7276zm0 27.444h3.7276v-23.8h-3.7276zm-12.609-2.3099c-0.82808 0.0309-1.6395-0.23849-2.2849-0.75886-0.63878-0.54537-1.1224-1.25-1.401-2.0431-0.34858-0.96734-0.5804-1.9722-0.69215-2.9937-0.25601-2.5318-0.25601-5.0819 0-7.6136 0.11341-1.0157 0.34524-2.0156 0.69215-2.9771 0.2827-0.79055 0.76553-1.4944 1.401-2.0431 0.64795-0.51369 1.4585-0.77971 2.2849-0.75052 0.85893-0.0384 1.7037 0.22098 2.3933 0.73384 0.65963 0.53537 1.1583 1.2425 1.4427 2.0431 0.36609 0.96317 0.60709 1.9689 0.71717 2.9937 0.25601 2.5401 0.25601 5.0985 0 7.6386-0.11175 1.024-0.35275 2.0297-0.71717 2.9937-0.28937 0.80222-0.79472 1.5094-1.4593 2.0431-0.68882 0.50118-1.5252 0.7597-2.3766 0.73384m-8.4809-9.59c-0.01251 1.6511 0.12175 3.3006 0.40028 4.9284 0.23183 1.3743 0.68798 2.7019 1.3509 3.9277 0.62126 1.1183 1.5352 2.0464 2.6435 2.6852 1.2792 0.68714 2.7177 1.024 4.1696 0.97567 1.4527 0.055 2.8928-0.28186 4.1696-0.97567 1.1033-0.64545 2.0156-1.5719 2.6435-2.6852 0.6788-1.2217 1.1441-2.5501 1.376-3.9277 0.5337-3.2639 0.5337-6.5929 0-9.8568-0.22849-1.3751-0.68464-2.7027-1.3509-3.9277-0.61626-1.1216-1.5311-2.0514-2.6435-2.6852-1.2784-0.69048-2.7169-1.0299-4.1696-0.98401-1.4527-0.0525-2.8928 0.2877-4.1696 0.98401-1.1049 0.64378-2.0172 1.5703-2.6435 2.6852-0.6813 1.2208-1.1466 2.5493-1.376 3.9277-0.27936 1.6278-0.41362 3.2773-0.40028 4.9284m-19.372 19.705h3.7693v-10.516h0.09173c0.40111 0.99152 1.0966 1.8354 1.993 2.4183 0.87811 0.59541 1.9163 0.9123 2.9771 0.90896 1.3434 0.0409 2.6602-0.3836 3.7276-1.2008 1.0349-0.83725 1.8555-1.9097 2.3933-3.1272 0.60625-1.3268 1.0324-2.7294 1.2675-4.1696 0.25017-1.4794 0.37609-2.9779 0.37526-4.4781 0-3.7584-0.6196-6.7105-1.8596-8.8561-1.1842-2.1206-3.4791-3.3757-5.9041-3.2272-1.1992-0.0217-2.3716 0.35358-3.3356 1.0674-0.88061 0.60042-1.5302 1.4827-1.8429 2.5017h-0.09173v-2.927h-3.5608zm3.5024-19.705c-0.01084-1.2976 0.05087-2.5951 0.18346-3.886 0.08673-0.98985 0.31689-1.9614 0.68381-2.8853 0.59625-1.6286 2.1965-2.6685 3.9277-2.5518 1.5152-0.0776 2.9012 0.85225 3.4024 2.2849 0.728 2.1198 1.0507 4.3572 0.95066 6.5962 0.11341 2.4859-0.20848 4.9718-0.95066 7.3468-0.45615 1.4835-1.8513 2.4759-3.4024 2.4183-0.85893 0.0292-1.7003-0.24517-2.3766-0.77554-0.65879-0.55538-1.1691-1.2659-1.4844-2.0681-0.37693-0.93731-0.62377-1.9222-0.73384-2.927-0.1376-1.1792-0.20431-2.365-0.20014-3.5525" fill="#fff"/>
   <path d="m95.971 134.89 7.0215 7.0299-14.752 14.752-55.739-55.739h14.051l41.687-41.679 7.7304 7.722-7.7304 7.7304-26.235 26.227h-15.452l41.687 41.687z" fill="#f89c34"/>
   <path d="m88.241 45.201-55.739 55.73h14.051l41.687 41.687 7.7304-7.7304-7.7304-7.722-26.235-26.235h-15.452l41.687-41.679 7.7304 7.722 7.0215-7.0215z" fill="#f36219"/>
   <path d="m129.93 100.93-28.687-28.687 7.0215-7.0215 35.716 35.708z" fill="#a6a8a7"/>
   <path d="m101.24 129.63 28.687-28.695h14.051l-35.716 35.716z" fill="#fff"/>
   <path d="m93.511 121.9 20.965-20.956 15.452-8e-3 -28.687 28.695z" fill="#a6a8a7"/>
   <path d="m114.48 100.94-20.965-20.965 7.7304-7.7304 28.687 28.695z" fill="#fff"/>
  </g>
 </g>
</svg>
